# Blender 5.1.2
# www.blender.org
mtllib beam.mtl
o Cylinder.001
v 0.000000 0.422386 0.000000
v 0.000000 1.000000 2.000000
v 0.082403 0.414270 0.000000
v 0.195090 0.980785 2.000000
v 0.161640 0.390233 0.000000
v 0.382683 0.923880 2.000000
v 0.234665 0.351201 0.000000
v 0.555570 0.831470 2.000000
v 0.298672 0.298672 0.000000
v 0.707107 0.707107 2.000000
v 0.351201 0.234665 0.000000
v 0.831470 0.555570 2.000000
v 0.390234 0.161640 0.000000
v 0.923880 0.382684 2.000000
v 0.414270 0.082403 0.000000
v 0.980785 0.195090 2.000000
v 0.422386 -0.000000 0.000000
v 1.000000 0.000000 2.000000
v 0.414270 -0.082403 0.000000
v 0.980785 -0.195090 2.000000
v 0.390234 -0.161640 0.000000
v 0.923880 -0.382683 2.000000
v 0.351201 -0.234665 0.000000
v 0.831470 -0.555570 2.000000
v 0.298672 -0.298672 0.000000
v 0.707107 -0.707107 2.000000
v 0.234665 -0.351201 0.000000
v 0.555570 -0.831470 2.000000
v 0.161640 -0.390234 0.000000
v 0.382683 -0.923879 2.000000
v 0.082403 -0.414270 0.000000
v 0.195090 -0.980785 2.000000
v 0.000000 -0.422386 0.000000
v 0.000000 -1.000000 2.000000
v -0.082403 -0.414270 0.000000
v -0.195090 -0.980785 2.000000
v -0.161640 -0.390234 0.000000
v -0.382683 -0.923879 2.000000
v -0.234665 -0.351201 0.000000
v -0.555570 -0.831470 2.000000
v -0.298672 -0.298672 0.000000
v -0.707107 -0.707107 2.000000
v -0.351201 -0.234665 0.000000
v -0.831470 -0.555570 2.000000
v -0.390234 -0.161640 0.000000
v -0.923880 -0.382683 2.000000
v -0.414270 -0.082403 0.000000
v -0.980785 -0.195090 2.000000
v -0.422386 -0.000000 0.000000
v -1.000000 0.000000 2.000000
v -0.414270 0.082403 0.000000
v -0.980785 0.195090 2.000000
v -0.390234 0.161640 0.000000
v -0.923880 0.382684 2.000000
v -0.351201 0.234665 0.000000
v -0.831470 0.555570 2.000000
v -0.298672 0.298672 0.000000
v -0.707107 0.707107 2.000000
v -0.234665 0.351201 0.000000
v -0.555570 0.831470 2.000000
v -0.161640 0.390233 0.000000
v -0.382683 0.923880 2.000000
v -0.082403 0.414270 0.000000
v -0.195090 0.980785 2.000000
v 0.000000 1.000000 1.000000
v 0.195090 0.980785 1.000000
v 0.382683 0.923880 1.000000
v 0.555570 0.831470 1.000000
v 0.707107 0.707107 1.000000
v 0.831470 0.555570 1.000000
v 0.923880 0.382683 1.000000
v 0.980785 0.195090 1.000000
v 1.000000 0.000000 1.000000
v 0.980785 -0.195090 1.000000
v 0.923880 -0.382683 1.000000
v 0.831470 -0.555570 1.000000
v 0.707107 -0.707107 1.000000
v 0.555570 -0.831470 1.000000
v 0.382683 -0.923880 1.000000
v 0.195090 -0.980785 1.000000
v 0.000000 -1.000000 1.000000
v -0.195090 -0.980785 1.000000
v -0.382683 -0.923880 1.000000
v -0.555570 -0.831470 1.000000
v -0.707107 -0.707107 1.000000
v -0.831470 -0.555570 1.000000
v -0.923880 -0.382683 1.000000
v -0.980785 -0.195090 1.000000
v -1.000000 0.000000 1.000000
v -0.980785 0.195090 1.000000
v -0.923880 0.382683 1.000000
v -0.831470 0.555570 1.000000
v -0.707107 0.707107 1.000000
v -0.555570 0.831470 1.000000
v -0.382683 0.923880 1.000000
v -0.195090 0.980785 1.000000
v 0.195090 0.980785 0.500000
v 0.382683 0.923879 0.500000
v 0.555570 0.831470 0.500000
v 0.707107 0.707107 0.500000
v 0.831470 0.555570 0.500000
v 0.923880 0.382683 0.500000
v 0.980785 0.195090 0.500000
v 1.000000 -0.000000 0.500000
v 0.980785 -0.195090 0.500000
v 0.923880 -0.382683 0.500000
v 0.831470 -0.555570 0.500000
v 0.707107 -0.707107 0.500000
v 0.555570 -0.831470 0.500000
v 0.382683 -0.923880 0.500000
v 0.195090 -0.980785 0.500000
v 0.000000 -1.000000 0.500000
v -0.195090 -0.980785 0.500000
v -0.382683 -0.923880 0.500000
v -0.555570 -0.831470 0.500000
v -0.707107 -0.707107 0.500000
v -0.831470 -0.555570 0.500000
v -0.923880 -0.382683 0.500000
v -0.980785 -0.195090 0.500000
v -1.000000 -0.000000 0.500000
v -0.980785 0.195090 0.500000
v -0.923880 0.382683 0.500000
v -0.831470 0.555570 0.500000
v -0.707107 0.707107 0.500000
v -0.555570 0.831470 0.500000
v -0.382683 0.923879 0.500000
v -0.195090 0.980785 0.500000
v 0.000000 1.000000 0.500000
v 0.146096 0.734474 0.250000
v 0.286578 0.691859 0.250000
v 0.416046 0.622657 0.250000
v 0.529526 0.529526 0.250000
v 0.622657 0.416046 0.250000
v 0.691859 0.286577 0.250000
v 0.734474 0.146096 0.250000
v 0.748863 -0.000000 0.250000
v 0.734474 -0.146096 0.250000
v 0.691859 -0.286578 0.250000
v 0.622657 -0.416046 0.250000
v 0.529526 -0.529526 0.250000
v 0.416046 -0.622657 0.250000
v 0.286578 -0.691859 0.250000
v 0.146096 -0.734474 0.250000
v 0.000000 -0.748863 0.250000
v -0.146096 -0.734474 0.250000
v -0.286578 -0.691859 0.250000
v -0.416046 -0.622657 0.250000
v -0.529526 -0.529526 0.250000
v -0.622657 -0.416046 0.250000
v -0.691859 -0.286578 0.250000
v -0.734474 -0.146096 0.250000
v -0.748863 -0.000000 0.250000
v -0.734474 0.146096 0.250000
v -0.691859 0.286577 0.250000
v -0.622657 0.416046 0.250000
v -0.529526 0.529526 0.250000
v -0.416046 0.622657 0.250000
v -0.286578 0.691859 0.250000
v -0.146096 0.734474 0.250000
v 0.000000 0.748863 0.250000
vn 0.0980 0.9952 -0.0000
vn 0.2903 0.9569 -0.0000
vn 0.4714 0.8819 -0.0000
vn 0.6344 0.7730 -0.0000
vn 0.7730 0.6344 -0.0000
vn 0.8819 0.4714 -0.0000
vn 0.9569 0.2903 -0.0000
vn 0.9952 0.0980 -0.0000
vn 0.9952 -0.0980 -0.0000
vn 0.9569 -0.2903 -0.0000
vn 0.8819 -0.4714 -0.0000
vn 0.7730 -0.6344 -0.0000
vn 0.6344 -0.7730 -0.0000
vn 0.4714 -0.8819 -0.0000
vn 0.2903 -0.9569 -0.0000
vn 0.0980 -0.9952 -0.0000
vn -0.0980 -0.9952 -0.0000
vn -0.2903 -0.9569 -0.0000
vn -0.4714 -0.8819 -0.0000
vn -0.6344 -0.7730 -0.0000
vn -0.7730 -0.6344 -0.0000
vn -0.8819 -0.4714 -0.0000
vn -0.9569 -0.2903 -0.0000
vn -0.9952 -0.0980 -0.0000
vn -0.9952 0.0980 -0.0000
vn -0.9569 0.2903 -0.0000
vn -0.8819 0.4714 -0.0000
vn -0.7730 0.6344 -0.0000
vn -0.6344 0.7730 -0.0000
vn -0.4714 0.8819 -0.0000
vn -0.2903 0.9569 -0.0000
vn -0.0980 0.9952 -0.0000
vn 0.0693 0.7038 -0.7070
vn 0.2053 0.6768 -0.7070
vn 0.3334 0.6237 -0.7070
vn 0.4486 0.5467 -0.7070
vn 0.5467 0.4486 -0.7070
vn 0.6237 0.3334 -0.7070
vn 0.6768 0.2053 -0.7070
vn 0.7038 0.0693 -0.7070
vn 0.7038 -0.0693 -0.7070
vn 0.6768 -0.2053 -0.7070
vn 0.6237 -0.3334 -0.7070
vn 0.5467 -0.4486 -0.7070
vn 0.4486 -0.5467 -0.7070
vn 0.3334 -0.6237 -0.7070
vn 0.2053 -0.6768 -0.7070
vn 0.0693 -0.7038 -0.7070
vn -0.0693 -0.7038 -0.7070
vn -0.2053 -0.6768 -0.7070
vn -0.3334 -0.6237 -0.7070
vn -0.4486 -0.5467 -0.7070
vn -0.5467 -0.4486 -0.7070
vn -0.6237 -0.3334 -0.7070
vn -0.6768 -0.2053 -0.7070
vn -0.7038 -0.0693 -0.7070
vn -0.7038 0.0693 -0.7070
vn -0.6768 0.2053 -0.7070
vn -0.6237 0.3334 -0.7070
vn -0.5467 0.4486 -0.7070
vn -0.4486 0.5467 -0.7070
vn -0.3334 0.6237 -0.7070
vn -0.2053 0.6768 -0.7070
vn -0.0693 0.7038 -0.7070
vn -0.0598 0.6069 -0.7925
vn -0.1770 0.5836 -0.7925
vn -0.2875 0.5378 -0.7925
vn -0.3869 0.4714 -0.7925
vn -0.4714 0.3869 -0.7925
vn -0.5378 0.2875 -0.7925
vn -0.5836 0.1770 -0.7925
vn -0.6069 0.0598 -0.7925
vn -0.6069 -0.0598 -0.7925
vn -0.5836 -0.1770 -0.7925
vn -0.5378 -0.2875 -0.7925
vn -0.4714 -0.3869 -0.7925
vn -0.3869 -0.4714 -0.7925
vn -0.2875 -0.5378 -0.7925
vn -0.1770 -0.5836 -0.7925
vn -0.0598 -0.6069 -0.7925
vn 0.0598 -0.6069 -0.7925
vn 0.1770 -0.5836 -0.7925
vn 0.2875 -0.5378 -0.7925
vn 0.3869 -0.4714 -0.7925
vn 0.4714 -0.3869 -0.7925
vn 0.5378 -0.2875 -0.7925
vn 0.5836 -0.1770 -0.7925
vn 0.6069 -0.0598 -0.7925
vn 0.6069 0.0598 -0.7925
vn 0.5836 0.1770 -0.7925
vn 0.5378 0.2875 -0.7925
vn 0.4714 0.3869 -0.7925
vn 0.3869 0.4714 -0.7925
vn 0.2875 0.5378 -0.7925
vn 0.1770 0.5836 -0.7925
vn 0.0598 0.6069 -0.7925
vt 1.000000 0.500000
vt 1.000000 1.000000
vt 0.968750 1.000000
vt 0.968750 0.500000
vt 0.937500 1.000000
vt 0.937500 0.500000
vt 0.906250 1.000000
vt 0.906250 0.500000
vt 0.875000 1.000000
vt 0.875000 0.500000
vt 0.843750 1.000000
vt 0.843750 0.500000
vt 0.812500 1.000000
vt 0.812500 0.500000
vt 0.781250 1.000000
vt 0.781250 0.500000
vt 0.750000 1.000000
vt 0.750000 0.500000
vt 0.718750 1.000000
vt 0.718750 0.500000
vt 0.687500 1.000000
vt 0.687500 0.500000
vt 0.656250 1.000000
vt 0.656250 0.500000
vt 0.625000 1.000000
vt 0.625000 0.500000
vt 0.593750 1.000000
vt 0.593750 0.500000
vt 0.562500 1.000000
vt 0.562500 0.500000
vt 0.531250 1.000000
vt 0.531250 0.500000
vt 0.500000 1.000000
vt 0.500000 0.500000
vt 0.468750 1.000000
vt 0.468750 0.500000
vt 0.437500 1.000000
vt 0.437500 0.500000
vt 0.406250 1.000000
vt 0.406250 0.500000
vt 0.375000 1.000000
vt 0.375000 0.500000
vt 0.343750 1.000000
vt 0.343750 0.500000
vt 0.312500 1.000000
vt 0.312500 0.500000
vt 0.281250 1.000000
vt 0.281250 0.500000
vt 0.250000 1.000000
vt 0.250000 0.500000
vt 0.218750 1.000000
vt 0.218750 0.500000
vt 0.187500 1.000000
vt 0.187500 0.500000
vt 0.156250 1.000000
vt 0.156250 0.500000
vt 0.125000 1.000000
vt 0.125000 0.500000
vt 0.093750 1.000000
vt 0.093750 0.500000
vt 0.062500 1.000000
vt 0.062500 0.500000
vt 0.031250 1.000000
vt 0.031250 0.500000
vt 0.000000 1.000000
vt 0.000000 0.500000
vt 0.031250 0.250000
vt 0.000000 0.250000
vt 0.062500 0.250000
vt 0.093750 0.250000
vt 0.125000 0.250000
vt 0.156250 0.250000
vt 0.187500 0.250000
vt 0.218750 0.250000
vt 0.250000 0.250000
vt 0.281250 0.250000
vt 0.312500 0.250000
vt 0.343750 0.250000
vt 0.375000 0.250000
vt 0.406250 0.250000
vt 0.437500 0.250000
vt 0.468750 0.250000
vt 0.500000 0.250000
vt 0.531250 0.250000
vt 0.562500 0.250000
vt 0.593750 0.250000
vt 0.625000 0.250000
vt 0.656250 0.250000
vt 0.687500 0.250000
vt 0.718750 0.250000
vt 0.750000 0.250000
vt 0.781250 0.250000
vt 0.812500 0.250000
vt 0.843750 0.250000
vt 0.875000 0.250000
vt 0.906250 0.250000
vt 0.937500 0.250000
vt 0.968750 0.250000
vt 1.000000 0.250000
vt 1.000000 0.125000
vt 0.968750 0.125000
vt 0.937500 0.125000
vt 0.906250 0.125000
vt 0.875000 0.125000
vt 0.843750 0.125000
vt 0.812500 0.125000
vt 0.781250 0.125000
vt 0.750000 0.125000
vt 0.718750 0.125000
vt 0.687500 0.125000
vt 0.656250 0.125000
vt 0.625000 0.125000
vt 0.593750 0.125000
vt 0.562500 0.125000
vt 0.531250 0.125000
vt 0.500000 0.125000
vt 0.468750 0.125000
vt 0.437500 0.125000
vt 0.406250 0.125000
vt 0.375000 0.125000
vt 0.343750 0.125000
vt 0.312500 0.125000
vt 0.281250 0.125000
vt 0.250000 0.125000
vt 0.218750 0.125000
vt 0.187500 0.125000
vt 0.156250 0.125000
vt 0.125000 0.125000
vt 0.093750 0.125000
vt 0.062500 0.125000
vt 0.031250 0.125000
vt 0.000000 0.125000
vt 0.031250 0.000000
vt 0.000000 0.000000
vt 0.062500 0.000000
vt 0.093750 0.000000
vt 0.125000 0.000000
vt 0.156250 0.000000
vt 0.187500 0.000000
vt 0.218750 0.000000
vt 0.250000 0.000000
vt 0.281250 0.000000
vt 0.312500 0.000000
vt 0.343750 0.000000
vt 0.375000 0.000000
vt 0.406250 0.000000
vt 0.437500 0.000000
vt 0.468750 0.000000
vt 0.500000 0.000000
vt 0.531250 0.000000
vt 0.562500 0.000000
vt 0.593750 0.000000
vt 0.625000 0.000000
vt 0.656250 0.000000
vt 0.687500 0.000000
vt 0.718750 0.000000
vt 0.750000 0.000000
vt 0.781250 0.000000
vt 0.812500 0.000000
vt 0.843750 0.000000
vt 0.875000 0.000000
vt 0.906250 0.000000
vt 0.937500 0.000000
vt 0.968750 0.000000
vt 1.000000 0.000000
s 0
f 65/1/1 2/2/1 4/3/1 66/4/1
f 66/4/2 4/3/2 6/5/2 67/6/2
f 67/6/3 6/5/3 8/7/3 68/8/3
f 68/8/4 8/7/4 10/9/4 69/10/4
f 69/10/5 10/9/5 12/11/5 70/12/5
f 70/12/6 12/11/6 14/13/6 71/14/6
f 71/14/7 14/13/7 16/15/7 72/16/7
f 72/16/8 16/15/8 18/17/8 73/18/8
f 73/18/9 18/17/9 20/19/9 74/20/9
f 74/20/10 20/19/10 22/21/10 75/22/10
f 75/22/11 22/21/11 24/23/11 76/24/11
f 76/24/12 24/23/12 26/25/12 77/26/12
f 77/26/13 26/25/13 28/27/13 78/28/13
f 78/28/14 28/27/14 30/29/14 79/30/14
f 79/30/15 30/29/15 32/31/15 80/32/15
f 80/32/16 32/31/16 34/33/16 81/34/16
f 81/34/17 34/33/17 36/35/17 82/36/17
f 82/36/18 36/35/18 38/37/18 83/38/18
f 83/38/19 38/37/19 40/39/19 84/40/19
f 84/40/20 40/39/20 42/41/20 85/42/20
f 85/42/21 42/41/21 44/43/21 86/44/21
f 86/44/22 44/43/22 46/45/22 87/46/22
f 87/46/23 46/45/23 48/47/23 88/48/23
f 88/48/24 48/47/24 50/49/24 89/50/24
f 89/50/25 50/49/25 52/51/25 90/52/25
f 90/52/26 52/51/26 54/53/26 91/54/26
f 91/54/27 54/53/27 56/55/27 92/56/27
f 92/56/28 56/55/28 58/57/28 93/58/28
f 93/58/29 58/57/29 60/59/29 94/60/29
f 94/60/30 60/59/30 62/61/30 95/62/30
f 95/62/31 62/61/31 64/63/31 96/64/31
f 96/64/32 64/63/32 2/65/32 65/66/32
f 127/67/32 96/64/32 65/66/32 128/68/32
f 126/69/31 95/62/31 96/64/31 127/67/31
f 125/70/30 94/60/30 95/62/30 126/69/30
f 124/71/29 93/58/29 94/60/29 125/70/29
f 123/72/28 92/56/28 93/58/28 124/71/28
f 122/73/27 91/54/27 92/56/27 123/72/27
f 121/74/26 90/52/26 91/54/26 122/73/26
f 120/75/25 89/50/25 90/52/25 121/74/25
f 119/76/24 88/48/24 89/50/24 120/75/24
f 118/77/23 87/46/23 88/48/23 119/76/23
f 117/78/22 86/44/22 87/46/22 118/77/22
f 116/79/21 85/42/21 86/44/21 117/78/21
f 115/80/20 84/40/20 85/42/20 116/79/20
f 114/81/19 83/38/19 84/40/19 115/80/19
f 113/82/18 82/36/18 83/38/18 114/81/18
f 112/83/17 81/34/17 82/36/17 113/82/17
f 111/84/16 80/32/16 81/34/16 112/83/16
f 110/85/15 79/30/15 80/32/15 111/84/15
f 109/86/14 78/28/14 79/30/14 110/85/14
f 108/87/13 77/26/13 78/28/13 109/86/13
f 107/88/12 76/24/12 77/26/12 108/87/12
f 106/89/11 75/22/11 76/24/11 107/88/11
f 105/90/10 74/20/10 75/22/10 106/89/10
f 104/91/9 73/18/9 74/20/9 105/90/9
f 103/92/8 72/16/8 73/18/8 104/91/8
f 102/93/7 71/14/7 72/16/7 103/92/7
f 101/94/6 70/12/6 71/14/6 102/93/6
f 100/95/5 69/10/5 70/12/5 101/94/5
f 99/96/4 68/8/4 69/10/4 100/95/4
f 98/97/3 67/6/3 68/8/3 99/96/3
f 97/98/2 66/4/2 67/6/2 98/97/2
f 128/99/1 65/1/1 66/4/1 97/98/1
f 160/100/33 128/99/33 97/98/33 129/101/33
f 129/101/34 97/98/34 98/97/34 130/102/34
f 130/102/35 98/97/35 99/96/35 131/103/35
f 131/103/36 99/96/36 100/95/36 132/104/36
f 132/104/37 100/95/37 101/94/37 133/105/37
f 133/105/38 101/94/38 102/93/38 134/106/38
f 134/106/39 102/93/39 103/92/39 135/107/39
f 135/107/40 103/92/40 104/91/40 136/108/40
f 136/108/41 104/91/41 105/90/41 137/109/41
f 137/109/42 105/90/42 106/89/42 138/110/42
f 138/110/43 106/89/43 107/88/43 139/111/43
f 139/111/44 107/88/44 108/87/44 140/112/44
f 140/112/45 108/87/45 109/86/45 141/113/45
f 141/113/46 109/86/46 110/85/46 142/114/46
f 142/114/47 110/85/47 111/84/47 143/115/47
f 143/115/48 111/84/48 112/83/48 144/116/48
f 144/116/49 112/83/49 113/82/49 145/117/49
f 145/117/50 113/82/50 114/81/50 146/118/50
f 146/118/51 114/81/51 115/80/51 147/119/51
f 147/119/52 115/80/52 116/79/52 148/120/52
f 148/120/53 116/79/53 117/78/53 149/121/53
f 149/121/54 117/78/54 118/77/54 150/122/54
f 150/122/55 118/77/55 119/76/55 151/123/55
f 151/123/56 119/76/56 120/75/56 152/124/56
f 152/124/57 120/75/57 121/74/57 153/125/57
f 153/125/58 121/74/58 122/73/58 154/126/58
f 154/126/59 122/73/59 123/72/59 155/127/59
f 155/127/60 123/72/60 124/71/60 156/128/60
f 156/128/61 124/71/61 125/70/61 157/129/61
f 157/129/62 125/70/62 126/69/62 158/130/62
f 158/130/63 126/69/63 127/67/63 159/131/63
f 159/131/64 127/67/64 128/68/64 160/132/64
f 63/133/65 159/131/65 160/132/65 1/134/65
f 61/135/66 158/130/66 159/131/66 63/133/66
f 59/136/67 157/129/67 158/130/67 61/135/67
f 57/137/68 156/128/68 157/129/68 59/136/68
f 55/138/69 155/127/69 156/128/69 57/137/69
f 53/139/70 154/126/70 155/127/70 55/138/70
f 51/140/71 153/125/71 154/126/71 53/139/71
f 49/141/72 152/124/72 153/125/72 51/140/72
f 47/142/73 151/123/73 152/124/73 49/141/73
f 45/143/74 150/122/74 151/123/74 47/142/74
f 43/144/75 149/121/75 150/122/75 45/143/75
f 41/145/76 148/120/76 149/121/76 43/144/76
f 39/146/77 147/119/77 148/120/77 41/145/77
f 37/147/78 146/118/78 147/119/78 39/146/78
f 35/148/79 145/117/79 146/118/79 37/147/79
f 33/149/80 144/116/80 145/117/80 35/148/80
f 31/150/81 143/115/81 144/116/81 33/149/81
f 29/151/82 142/114/82 143/115/82 31/150/82
f 27/152/83 141/113/83 142/114/83 29/151/83
f 25/153/84 140/112/84 141/113/84 27/152/84
f 23/154/85 139/111/85 140/112/85 25/153/85
f 21/155/86 138/110/86 139/111/86 23/154/86
f 19/156/87 137/109/87 138/110/87 21/155/87
f 17/157/88 136/108/88 137/109/88 19/156/88
f 15/158/89 135/107/89 136/108/89 17/157/89
f 13/159/90 134/106/90 135/107/90 15/158/90
f 11/160/91 133/105/91 134/106/91 13/159/91
f 9/161/92 132/104/92 133/105/92 11/160/92
f 7/162/93 131/103/93 132/104/93 9/161/93
f 5/163/94 130/102/94 131/103/94 7/162/94
f 3/164/95 129/101/95 130/102/95 5/163/95
f 1/165/96 160/100/96 129/101/96 3/164/96
