# Blender 5.1.2
# www.blender.org
mtllib beam_blowback.mtl
o Cylinder
v 0.000000 0.500179 0.003368
v -0.000000 1.628947 0.755903
v 0.097580 0.490568 0.003368
v 0.317792 1.597647 0.755903
v 0.191410 0.462105 0.003368
v 0.623371 1.504951 0.755903
v 0.277885 0.415884 0.003368
v 0.904994 1.354420 0.755903
v 0.353680 0.353680 0.003368
v 1.151839 1.151839 0.755903
v 0.415884 0.277885 0.003368
v 1.354420 0.904994 0.755903
v 0.462105 0.191410 0.003368
v 1.504950 0.623371 0.755903
v 0.490568 0.097580 0.003368
v 1.597647 0.317792 0.755903
v 0.500179 -0.000000 0.003368
v 1.628947 0.000000 0.755903
v 0.490568 -0.097580 0.003368
v 1.597647 -0.317792 0.755903
v 0.462105 -0.191410 0.003368
v 1.504950 -0.623371 0.755904
v 0.415884 -0.277885 0.003368
v 1.354420 -0.904994 0.755904
v 0.353680 -0.353680 0.003368
v 1.151839 -1.151839 0.755904
v 0.277885 -0.415884 0.003368
v 0.904994 -1.354419 0.755904
v 0.191410 -0.462105 0.003368
v 0.623371 -1.504950 0.755904
v 0.097580 -0.490569 0.003368
v 0.317792 -1.597647 0.755904
v 0.000000 -0.500179 0.003368
v -0.000000 -1.628947 0.755904
v -0.097580 -0.490569 0.003368
v -0.317792 -1.597647 0.755904
v -0.191410 -0.462105 0.003368
v -0.623371 -1.504950 0.755904
v -0.277885 -0.415884 0.003368
v -0.904994 -1.354419 0.755904
v -0.353680 -0.353680 0.003368
v -1.151839 -1.151839 0.755904
v -0.415884 -0.277885 0.003368
v -1.354420 -0.904994 0.755904
v -0.462105 -0.191410 0.003368
v -1.504950 -0.623371 0.755904
v -0.490568 -0.097580 0.003368
v -1.597647 -0.317792 0.755903
v -0.500179 -0.000000 0.003368
v -1.628947 0.000000 0.755903
v -0.490568 0.097580 0.003368
v -1.597647 0.317792 0.755903
v -0.462105 0.191410 0.003368
v -1.504950 0.623371 0.755903
v -0.415884 0.277885 0.003368
v -1.354420 0.904994 0.755903
v -0.353680 0.353680 0.003368
v -1.151839 1.151839 0.755903
v -0.277885 0.415884 0.003368
v -0.904994 1.354420 0.755903
v -0.191410 0.462105 0.003368
v -0.623371 1.504951 0.755903
v -0.097580 0.490568 0.003368
v -0.317792 1.597647 0.755903
v -0.000000 1.314473 0.538604
v 0.256441 1.289216 0.538604
v 0.503027 1.214415 0.538604
v 0.730282 1.092945 0.538604
v 0.929473 0.929473 0.538604
v 1.092945 0.730282 0.538604
v 1.214415 0.503027 0.538604
v 1.289216 0.256441 0.538604
v 1.314473 0.000000 0.538604
v 1.289216 -0.256441 0.538604
v 1.214415 -0.503027 0.538604
v 1.092945 -0.730282 0.538604
v 0.929473 -0.929473 0.538604
v 0.730282 -1.092945 0.538604
v 0.503027 -1.214415 0.538604
v 0.256441 -1.289216 0.538604
v -0.000000 -1.314473 0.538604
v -0.256441 -1.289216 0.538604
v -0.503027 -1.214415 0.538604
v -0.730282 -1.092945 0.538604
v -0.929473 -0.929473 0.538604
v -1.092945 -0.730282 0.538604
v -1.214415 -0.503027 0.538604
v -1.289216 -0.256441 0.538604
v -1.314473 0.000000 0.538604
v -1.289216 0.256441 0.538604
v -1.214415 0.503027 0.538604
v -1.092945 0.730282 0.538604
v -0.929473 0.929473 0.538604
v -0.730282 1.092945 0.538604
v -0.503027 1.214415 0.538604
v -0.256441 1.289216 0.538604
v -0.000000 1.471710 0.647254
v 0.287116 1.443431 0.647254
v 0.563199 1.359683 0.647254
v 0.817638 1.223682 0.647254
v 1.040656 1.040656 0.647254
v 1.223682 0.817638 0.647254
v 1.359683 0.563199 0.647254
v 1.443431 0.287116 0.647254
v 1.471710 0.000000 0.647254
v 1.443431 -0.287116 0.647254
v 1.359683 -0.563199 0.647254
v 1.223682 -0.817638 0.647254
v 1.040656 -1.040656 0.647254
v 0.817638 -1.223682 0.647254
v 0.563199 -1.359683 0.647254
v 0.287116 -1.443431 0.647254
v -0.000000 -1.471710 0.647254
v -0.287116 -1.443431 0.647254
v -0.563199 -1.359683 0.647254
v -0.817638 -1.223682 0.647254
v -1.040656 -1.040656 0.647254
v -1.223682 -0.817638 0.647254
v -1.359683 -0.563199 0.647254
v -1.443431 -0.287116 0.647254
v -1.471710 0.000000 0.647254
v -1.443431 0.287116 0.647254
v -1.359683 0.563199 0.647254
v -1.223682 0.817638 0.647254
v -1.040656 1.040656 0.647254
v -0.817638 1.223682 0.647254
v -0.563199 1.359683 0.647254
v -0.287116 1.443431 0.647254
v 0.225766 1.135001 0.429954
v 0.442855 1.069147 0.429954
v 0.642926 0.962207 0.429954
v 0.818290 0.818290 0.429954
v 0.962207 0.642926 0.429954
v 1.069147 0.442855 0.429954
v 1.135001 0.225766 0.429954
v 1.157237 -0.000000 0.429954
v 1.135001 -0.225766 0.429954
v 1.069147 -0.442855 0.429954
v 0.962207 -0.642926 0.429954
v 0.818290 -0.818290 0.429954
v 0.642926 -0.962207 0.429954
v 0.442855 -1.069147 0.429954
v 0.225766 -1.135001 0.429954
v -0.000000 -1.157237 0.429954
v -0.225766 -1.135001 0.429954
v -0.442855 -1.069147 0.429954
v -0.642926 -0.962207 0.429954
v -0.818290 -0.818290 0.429954
v -0.962207 -0.642926 0.429954
v -1.069147 -0.442855 0.429954
v -1.135001 -0.225766 0.429954
v -1.157237 -0.000000 0.429954
v -1.135001 0.225766 0.429954
v -1.069147 0.442855 0.429954
v -0.962207 0.642926 0.429954
v -0.818290 0.818290 0.429954
v -0.642926 0.962207 0.429954
v -0.442855 1.069147 0.429954
v -0.225766 1.135001 0.429954
v -0.000000 1.157237 0.429954
vn 0.0559 0.5676 -0.8214
vn 0.1656 0.5458 -0.8214
vn 0.2689 0.5030 -0.8214
vn 0.3618 0.4409 -0.8214
vn 0.4409 0.3618 -0.8214
vn 0.5030 0.2689 -0.8214
vn 0.5458 0.1656 -0.8214
vn 0.5676 0.0559 -0.8214
vn 0.5676 -0.0559 -0.8214
vn 0.5458 -0.1656 -0.8214
vn 0.5030 -0.2689 -0.8214
vn 0.4409 -0.3618 -0.8214
vn 0.3618 -0.4409 -0.8214
vn 0.2689 -0.5030 -0.8214
vn 0.1656 -0.5458 -0.8214
vn 0.0559 -0.5676 -0.8214
vn -0.0559 -0.5676 -0.8214
vn -0.1656 -0.5458 -0.8214
vn -0.2689 -0.5030 -0.8214
vn -0.3618 -0.4409 -0.8214
vn -0.4409 -0.3618 -0.8214
vn -0.5030 -0.2689 -0.8214
vn -0.5458 -0.1656 -0.8214
vn -0.5676 -0.0559 -0.8214
vn -0.5676 0.0559 -0.8214
vn -0.5458 0.1656 -0.8214
vn -0.5030 0.2689 -0.8214
vn -0.4409 0.3618 -0.8214
vn -0.3618 0.4409 -0.8214
vn -0.2689 0.5030 -0.8214
vn -0.1656 0.5458 -0.8214
vn -0.0559 0.5676 -0.8214
vn 0.0536 0.5438 -0.8375
vn 0.1586 0.5229 -0.8375
vn 0.2576 0.4819 -0.8375
vn 0.3466 0.4224 -0.8375
vn 0.4224 0.3466 -0.8375
vn 0.4819 0.2576 -0.8375
vn 0.5229 0.1586 -0.8375
vn 0.5438 0.0536 -0.8375
vn 0.5438 -0.0536 -0.8375
vn 0.5229 -0.1586 -0.8375
vn 0.4819 -0.2576 -0.8375
vn 0.4224 -0.3466 -0.8375
vn 0.3466 -0.4224 -0.8375
vn 0.2576 -0.4819 -0.8375
vn 0.1586 -0.5229 -0.8375
vn 0.0536 -0.5438 -0.8375
vn -0.0536 -0.5438 -0.8375
vn -0.1586 -0.5229 -0.8375
vn -0.2576 -0.4819 -0.8375
vn -0.3466 -0.4224 -0.8375
vn -0.4224 -0.3466 -0.8375
vn -0.4819 -0.2576 -0.8375
vn -0.5229 -0.1586 -0.8375
vn -0.5438 -0.0536 -0.8375
vn -0.5438 0.0536 -0.8375
vn -0.5229 0.1586 -0.8375
vn -0.4819 0.2576 -0.8375
vn -0.4224 0.3466 -0.8375
vn -0.3466 0.4224 -0.8375
vn -0.2576 0.4819 -0.8375
vn -0.1586 0.5229 -0.8375
vn -0.0536 0.5438 -0.8375
vt 1.000000 0.750000
vt 1.000000 1.000000
vt 0.968750 1.000000
vt 0.968750 0.750000
vt 0.937500 1.000000
vt 0.937500 0.750000
vt 0.906250 1.000000
vt 0.906250 0.750000
vt 0.875000 1.000000
vt 0.875000 0.750000
vt 0.843750 1.000000
vt 0.843750 0.750000
vt 0.812500 1.000000
vt 0.812500 0.750000
vt 0.781250 1.000000
vt 0.781250 0.750000
vt 0.750000 1.000000
vt 0.750000 0.750000
vt 0.718750 1.000000
vt 0.718750 0.750000
vt 0.687500 1.000000
vt 0.687500 0.750000
vt 0.656250 1.000000
vt 0.656250 0.750000
vt 0.625000 1.000000
vt 0.625000 0.750000
vt 0.593750 1.000000
vt 0.593750 0.750000
vt 0.562500 1.000000
vt 0.562500 0.750000
vt 0.531250 1.000000
vt 0.531250 0.750000
vt 0.500000 1.000000
vt 0.500000 0.750000
vt 0.468750 1.000000
vt 0.468750 0.750000
vt 0.437500 1.000000
vt 0.437500 0.750000
vt 0.406250 1.000000
vt 0.406250 0.750000
vt 0.375000 1.000000
vt 0.375000 0.750000
vt 0.343750 1.000000
vt 0.343750 0.750000
vt 0.312500 1.000000
vt 0.312500 0.750000
vt 0.281250 1.000000
vt 0.281250 0.750000
vt 0.250000 1.000000
vt 0.250000 0.750000
vt 0.218750 1.000000
vt 0.218750 0.750000
vt 0.187500 1.000000
vt 0.187500 0.750000
vt 0.156250 1.000000
vt 0.156250 0.750000
vt 0.125000 1.000000
vt 0.125000 0.750000
vt 0.093750 1.000000
vt 0.093750 0.750000
vt 0.062500 1.000000
vt 0.062500 0.750000
vt 0.031250 1.000000
vt 0.031250 0.750000
vt 0.000000 1.000000
vt 0.000000 0.750000
vt 0.031250 0.250000
vt 0.031250 0.500000
vt 0.000000 0.500000
vt 0.000000 0.250000
vt 0.062500 0.250000
vt 0.062500 0.500000
vt 0.093750 0.250000
vt 0.093750 0.500000
vt 0.125000 0.250000
vt 0.125000 0.500000
vt 0.156250 0.250000
vt 0.156250 0.500000
vt 0.187500 0.250000
vt 0.187500 0.500000
vt 0.218750 0.250000
vt 0.218750 0.500000
vt 0.250000 0.250000
vt 0.250000 0.500000
vt 0.281250 0.250000
vt 0.281250 0.500000
vt 0.312500 0.250000
vt 0.312500 0.500000
vt 0.343750 0.250000
vt 0.343750 0.500000
vt 0.375000 0.250000
vt 0.375000 0.500000
vt 0.406250 0.250000
vt 0.406250 0.500000
vt 0.437500 0.250000
vt 0.437500 0.500000
vt 0.468750 0.250000
vt 0.468750 0.500000
vt 0.500000 0.250000
vt 0.500000 0.500000
vt 0.531250 0.250000
vt 0.531250 0.500000
vt 0.562500 0.250000
vt 0.562500 0.500000
vt 0.593750 0.250000
vt 0.593750 0.500000
vt 0.625000 0.250000
vt 0.625000 0.500000
vt 0.656250 0.250000
vt 0.656250 0.500000
vt 0.687500 0.250000
vt 0.687500 0.500000
vt 0.718750 0.250000
vt 0.718750 0.500000
vt 0.750000 0.250000
vt 0.750000 0.500000
vt 0.781250 0.250000
vt 0.781250 0.500000
vt 0.812500 0.250000
vt 0.812500 0.500000
vt 0.843750 0.250000
vt 0.843750 0.500000
vt 0.875000 0.250000
vt 0.875000 0.500000
vt 0.906250 0.250000
vt 0.906250 0.500000
vt 0.937500 0.250000
vt 0.937500 0.500000
vt 0.968750 0.250000
vt 0.968750 0.500000
vt 1.000000 0.250000
vt 1.000000 0.500000
vt 1.000000 0.000000
vt 0.968750 0.000000
vt 0.937500 0.000000
vt 0.906250 0.000000
vt 0.875000 0.000000
vt 0.843750 0.000000
vt 0.812500 0.000000
vt 0.781250 0.000000
vt 0.750000 0.000000
vt 0.718750 0.000000
vt 0.687500 0.000000
vt 0.656250 0.000000
vt 0.625000 0.000000
vt 0.593750 0.000000
vt 0.562500 0.000000
vt 0.531250 0.000000
vt 0.500000 0.000000
vt 0.468750 0.000000
vt 0.437500 0.000000
vt 0.406250 0.000000
vt 0.375000 0.000000
vt 0.343750 0.000000
vt 0.312500 0.000000
vt 0.281250 0.000000
vt 0.250000 0.000000
vt 0.218750 0.000000
vt 0.187500 0.000000
vt 0.156250 0.000000
vt 0.125000 0.000000
vt 0.093750 0.000000
vt 0.062500 0.000000
vt 0.031250 0.000000
vt 0.000000 0.000000
s 0
f 97/1/1 2/2/1 4/3/1 98/4/1
f 98/4/2 4/3/2 6/5/2 99/6/2
f 99/6/3 6/5/3 8/7/3 100/8/3
f 100/8/4 8/7/4 10/9/4 101/10/4
f 101/10/5 10/9/5 12/11/5 102/12/5
f 102/12/6 12/11/6 14/13/6 103/14/6
f 103/14/7 14/13/7 16/15/7 104/16/7
f 104/16/8 16/15/8 18/17/8 105/18/8
f 105/18/9 18/17/9 20/19/9 106/20/9
f 106/20/10 20/19/10 22/21/10 107/22/10
f 107/22/11 22/21/11 24/23/11 108/24/11
f 108/24/12 24/23/12 26/25/12 109/26/12
f 109/26/13 26/25/13 28/27/13 110/28/13
f 110/28/14 28/27/14 30/29/14 111/30/14
f 111/30/15 30/29/15 32/31/15 112/32/15
f 112/32/16 32/31/16 34/33/16 113/34/16
f 113/34/17 34/33/17 36/35/17 114/36/17
f 114/36/18 36/35/18 38/37/18 115/38/18
f 115/38/19 38/37/19 40/39/19 116/40/19
f 116/40/20 40/39/20 42/41/20 117/42/20
f 117/42/21 42/41/21 44/43/21 118/44/21
f 118/44/22 44/43/22 46/45/22 119/46/22
f 119/46/23 46/45/23 48/47/23 120/48/23
f 120/48/24 48/47/24 50/49/24 121/50/24
f 121/50/25 50/49/25 52/51/25 122/52/25
f 122/52/26 52/51/26 54/53/26 123/54/26
f 123/54/27 54/53/27 56/55/27 124/56/27
f 124/56/28 56/55/28 58/57/28 125/58/28
f 125/58/29 58/57/29 60/59/29 126/60/29
f 126/60/30 60/59/30 62/61/30 127/62/30
f 127/62/31 62/61/31 64/63/31 128/64/31
f 128/64/32 64/63/32 2/65/32 97/66/32
f 159/67/32 96/68/32 65/69/32 160/70/32
f 158/71/31 95/72/31 96/68/31 159/67/31
f 157/73/30 94/74/30 95/72/30 158/71/30
f 156/75/29 93/76/29 94/74/29 157/73/29
f 155/77/28 92/78/28 93/76/28 156/75/28
f 154/79/27 91/80/27 92/78/27 155/77/27
f 153/81/26 90/82/26 91/80/26 154/79/26
f 152/83/25 89/84/25 90/82/25 153/81/25
f 151/85/24 88/86/24 89/84/24 152/83/24
f 150/87/23 87/88/23 88/86/23 151/85/23
f 149/89/22 86/90/22 87/88/22 150/87/22
f 148/91/21 85/92/21 86/90/21 149/89/21
f 147/93/20 84/94/20 85/92/20 148/91/20
f 146/95/19 83/96/19 84/94/19 147/93/19
f 145/97/18 82/98/18 83/96/18 146/95/18
f 144/99/17 81/100/17 82/98/17 145/97/17
f 143/101/16 80/102/16 81/100/16 144/99/16
f 142/103/15 79/104/15 80/102/15 143/101/15
f 141/105/14 78/106/14 79/104/14 142/103/14
f 140/107/13 77/108/13 78/106/13 141/105/13
f 139/109/12 76/110/12 77/108/12 140/107/12
f 138/111/11 75/112/11 76/110/11 139/109/11
f 137/113/10 74/114/10 75/112/10 138/111/10
f 136/115/9 73/116/9 74/114/9 137/113/9
f 135/117/8 72/118/8 73/116/8 136/115/8
f 134/119/7 71/120/7 72/118/7 135/117/7
f 133/121/6 70/122/6 71/120/6 134/119/6
f 132/123/5 69/124/5 70/122/5 133/121/5
f 131/125/4 68/126/4 69/124/4 132/123/4
f 130/127/3 67/128/3 68/126/3 131/125/3
f 129/129/2 66/130/2 67/128/2 130/127/2
f 160/131/1 65/132/1 66/130/1 129/129/1
f 96/68/32 128/64/32 97/66/32 65/69/32
f 95/72/31 127/62/31 128/64/31 96/68/31
f 94/74/30 126/60/30 127/62/30 95/72/30
f 93/76/29 125/58/29 126/60/29 94/74/29
f 92/78/28 124/56/28 125/58/28 93/76/28
f 91/80/27 123/54/27 124/56/27 92/78/27
f 90/82/26 122/52/26 123/54/26 91/80/26
f 89/84/25 121/50/25 122/52/25 90/82/25
f 88/86/24 120/48/24 121/50/24 89/84/24
f 87/88/23 119/46/23 120/48/23 88/86/23
f 86/90/22 118/44/22 119/46/22 87/88/22
f 85/92/21 117/42/21 118/44/21 86/90/21
f 84/94/20 116/40/20 117/42/20 85/92/20
f 83/96/19 115/38/19 116/40/19 84/94/19
f 82/98/18 114/36/18 115/38/18 83/96/18
f 81/100/17 113/34/17 114/36/17 82/98/17
f 80/102/16 112/32/16 113/34/16 81/100/16
f 79/104/15 111/30/15 112/32/15 80/102/15
f 78/106/14 110/28/14 111/30/14 79/104/14
f 77/108/13 109/26/13 110/28/13 78/106/13
f 76/110/12 108/24/12 109/26/12 77/108/12
f 75/112/11 107/22/11 108/24/11 76/110/11
f 74/114/10 106/20/10 107/22/10 75/112/10
f 73/116/9 105/18/9 106/20/9 74/114/9
f 72/118/8 104/16/8 105/18/8 73/116/8
f 71/120/7 103/14/7 104/16/7 72/118/7
f 70/122/6 102/12/6 103/14/6 71/120/6
f 69/124/5 101/10/5 102/12/5 70/122/5
f 68/126/4 100/8/4 101/10/4 69/124/4
f 67/128/3 99/6/3 100/8/3 68/126/3
f 66/130/2 98/4/2 99/6/2 67/128/2
f 65/132/1 97/1/1 98/4/1 66/130/1
f 1/133/33 160/131/33 129/129/33 3/134/33
f 3/134/34 129/129/34 130/127/34 5/135/34
f 5/135/35 130/127/35 131/125/35 7/136/35
f 7/136/36 131/125/36 132/123/36 9/137/36
f 9/137/37 132/123/37 133/121/37 11/138/37
f 11/138/38 133/121/38 134/119/38 13/139/38
f 13/139/39 134/119/39 135/117/39 15/140/39
f 15/140/40 135/117/40 136/115/40 17/141/40
f 17/141/41 136/115/41 137/113/41 19/142/41
f 19/142/42 137/113/42 138/111/42 21/143/42
f 21/143/43 138/111/43 139/109/43 23/144/43
f 23/144/44 139/109/44 140/107/44 25/145/44
f 25/145/45 140/107/45 141/105/45 27/146/45
f 27/146/46 141/105/46 142/103/46 29/147/46
f 29/147/47 142/103/47 143/101/47 31/148/47
f 31/148/48 143/101/48 144/99/48 33/149/48
f 33/149/49 144/99/49 145/97/49 35/150/49
f 35/150/50 145/97/50 146/95/50 37/151/50
f 37/151/51 146/95/51 147/93/51 39/152/51
f 39/152/52 147/93/52 148/91/52 41/153/52
f 41/153/53 148/91/53 149/89/53 43/154/53
f 43/154/54 149/89/54 150/87/54 45/155/54
f 45/155/55 150/87/55 151/85/55 47/156/55
f 47/156/56 151/85/56 152/83/56 49/157/56
f 49/157/57 152/83/57 153/81/57 51/158/57
f 51/158/58 153/81/58 154/79/58 53/159/58
f 53/159/59 154/79/59 155/77/59 55/160/59
f 55/160/60 155/77/60 156/75/60 57/161/60
f 57/161/61 156/75/61 157/73/61 59/162/61
f 59/162/62 157/73/62 158/71/62 61/163/62
f 61/163/63 158/71/63 159/67/63 63/164/63
f 63/164/64 159/67/64 160/70/64 1/165/64
