# Blender 5.1.2
# www.blender.org
mtllib DECO_4m_45.mtl
o Plane
v -0.692910 0.287013 0.000000
v -0.530330 0.530330 0.000000
v -0.287012 0.692910 0.000000
v 0.000000 0.750000 0.000000
v 0.287013 0.692910 0.000000
v 0.530331 0.530330 -0.000000
v 0.692910 0.287012 -0.000000
v 0.750000 -0.000000 -0.000000
v 0.692910 -0.287013 -0.000000
v 0.530330 -0.530330 -0.000000
v 0.287012 -0.692910 0.000000
v -0.000000 -0.750000 0.000000
v -0.287013 -0.692910 0.000000
v -0.530330 -0.530330 0.000000
v -0.692910 -0.287012 0.000000
v -0.750000 0.000000 0.000000
v -0.638879 0.287013 -4.279843
v -0.488977 0.530330 -4.216903
v -0.264632 0.692910 -4.122706
v 0.000000 0.750000 -4.011593
v 0.264633 0.692909 -3.900481
v 0.488977 0.530330 -3.806284
v 0.638879 0.287012 -3.743344
v 0.691517 -0.000000 -3.721242
v 0.638879 -0.287013 -3.743344
v 0.488976 -0.530330 -3.806284
v 0.264632 -0.692910 -3.900481
v -0.000000 -0.750000 -4.011593
v -0.264633 -0.692910 -4.122706
v -0.488977 -0.530330 -4.216903
v -0.638879 -0.287012 -4.279843
v -0.691517 0.000000 -4.301944
v 2.682160 0.287013 -7.613107
v 2.796007 0.530330 -7.497042
v 2.966391 0.692910 -7.323339
v 3.167373 0.750000 -7.118442
v 3.368355 0.692910 -6.913546
v 3.538738 0.530330 -6.739842
v 3.652585 0.287012 -6.623778
v 3.692563 -0.000000 -6.583022
v 3.652585 -0.287013 -6.623778
v 3.538738 -0.530330 -6.739843
v 3.368354 -0.692910 -6.913546
v 3.167372 -0.750000 -7.118443
v 2.966391 -0.692910 -7.323339
v 2.796007 -0.530330 -7.497043
v 2.682160 -0.287012 -7.613107
v 2.642183 0.000000 -7.653863
v -0.683624 0.283303 0.000114
v -0.523131 0.523390 0.000071
v -0.283063 0.683723 0.000025
v -0.000001 0.740000 0.000006
v 0.283055 0.683726 0.000027
v 0.523118 0.523404 0.000078
v 0.683618 0.283319 0.000130
v 0.740001 -0.000000 0.000151
v 0.683618 -0.283320 0.000130
v 0.523117 -0.523404 0.000078
v 0.283054 -0.683727 0.000027
v -0.000001 -0.740000 0.000006
v -0.283063 -0.683723 0.000025
v -0.523131 -0.523390 0.000070
v -0.683624 -0.283303 0.000114
v -0.740001 0.000000 0.000131
v -0.630347 0.283227 -4.276255
v -0.482368 0.523358 -4.214125
v -0.260854 0.683788 -4.121118
v 0.000437 0.740011 -4.011410
v 0.261618 0.683459 -3.901745
v 0.482841 0.522865 -3.808856
v 0.630490 0.282856 -3.746859
v 0.682294 -0.000000 -3.725106
v 0.630490 -0.282857 -3.746859
v 0.482840 -0.522865 -3.808857
v 0.261617 -0.683459 -3.901746
v 0.000437 -0.740011 -4.011410
v -0.260855 -0.683788 -4.121118
v -0.482369 -0.523358 -4.214125
v -0.630347 -0.283226 -4.276255
v -0.682299 0.000000 -4.298068
v 2.688737 0.283304 -7.606550
v 2.801095 0.523390 -7.491947
v 2.969173 0.683723 -7.320535
v 3.167376 0.740000 -7.118446
v 3.365601 0.683726 -6.916388
v 3.533739 0.523402 -6.745040
v 3.646162 0.283317 -6.630493
v 3.685657 -0.000000 -6.590255
v 3.646162 -0.283318 -6.630493
v 3.533738 -0.523403 -6.745040
v 3.365601 -0.683726 -6.916388
v 3.167376 -0.740000 -7.118447
v 2.969173 -0.683723 -7.320536
v 2.801094 -0.523390 -7.491948
v 2.688737 -0.283303 -7.606550
v 2.649270 0.000000 -7.646809
v -0.685913 0.284219 -0.006576
v -0.524925 0.525122 -0.006607
v -0.284058 0.686042 -0.006641
v -0.000000 0.742536 -0.006655
v 0.284052 0.686043 -0.006640
v 0.524912 0.525129 -0.006602
v 0.685899 0.284227 -0.006564
v 0.742443 -0.000000 -0.006549
v 0.685899 -0.284227 -0.006564
v 0.524911 -0.525129 -0.006602
v 0.284051 -0.686044 -0.006640
v -0.000001 -0.742536 -0.006655
v -0.284058 -0.686042 -0.006641
v -0.524925 -0.525122 -0.006607
v -0.685913 -0.284218 -0.006576
v -0.742455 0.000000 -0.006563
v -0.630347 0.283227 -4.276255
v -0.482368 0.523358 -4.214125
v -0.260854 0.683788 -4.121118
v 0.000437 0.740011 -4.011410
v 0.261618 0.683459 -3.901745
v 0.482841 0.522865 -3.808856
v 0.630490 0.282856 -3.746859
v 0.682294 -0.000000 -3.725106
v 0.630490 -0.282857 -3.746859
v 0.482840 -0.522865 -3.808857
v 0.261617 -0.683459 -3.901746
v 0.000437 -0.740011 -4.011410
v -0.260855 -0.683788 -4.121118
v -0.482369 -0.523358 -4.214125
v -0.630347 -0.283226 -4.276255
v -0.682299 0.000000 -4.298068
v 2.682356 0.284221 -7.603507
v 2.795070 0.525125 -7.488555
v 2.963717 0.686043 -7.316579
v 3.162621 0.742537 -7.113781
v 3.361541 0.686045 -6.911007
v 3.530230 0.525131 -6.739081
v 3.642988 0.284229 -6.624174
v 3.682594 -0.000000 -6.583817
v 3.642988 -0.284229 -6.624175
v 3.530230 -0.525132 -6.739081
v 3.361540 -0.686045 -6.911008
v 3.162620 -0.742537 -7.113782
v 2.963717 -0.686043 -7.316579
v 2.795070 -0.525125 -7.488556
v 2.682356 -0.284221 -7.603507
v 2.642770 0.000000 -7.643881
v -0.689647 0.285711 -0.007497
v -0.527820 0.527914 -0.007515
v -0.285645 0.689737 -0.007535
v 0.000002 0.746557 -0.007544
v 0.285645 0.689735 -0.007535
v 0.527812 0.527912 -0.007513
v 0.689635 0.285711 -0.007491
v 0.746462 -0.000000 -0.007482
v 0.689635 -0.285711 -0.007491
v 0.527812 -0.527913 -0.007513
v 0.285644 -0.689735 -0.007535
v 0.000001 -0.746557 -0.007544
v -0.285645 -0.689737 -0.007535
v -0.527820 -0.527914 -0.007515
v -0.689647 -0.285711 -0.007497
v -0.746476 0.000000 -0.007490
v -0.638878 0.287014 -4.279843
v -0.488975 0.530332 -4.216902
v -0.264630 0.692911 -4.122705
v 0.000003 0.750000 -4.011592
v 0.264636 0.692908 -3.900479
v 0.488979 0.530328 -3.806283
v 0.638880 0.287010 -3.743344
v 0.691517 -0.000000 -3.721242
v 0.638879 -0.287011 -3.743344
v 0.488979 -0.530328 -3.806283
v 0.264635 -0.692909 -3.900480
v 0.000002 -0.750000 -4.011592
v -0.264630 -0.692911 -4.122705
v -0.488976 -0.530331 -4.216902
v -0.638879 -0.287013 -4.279843
v -0.691517 0.000000 -4.301944
v 2.679085 0.285714 -7.605531
v 2.792396 0.527918 -7.489988
v 2.961969 0.689739 -7.317086
v 3.161988 0.746558 -7.113158
v 3.362018 0.689737 -6.909245
v 3.531613 0.527916 -6.736373
v 3.644948 0.285714 -6.620860
v 3.684748 -0.000000 -6.580296
v 3.644948 -0.285714 -6.620861
v 3.531613 -0.527917 -6.736374
v 3.362017 -0.689737 -6.909245
v 3.161988 -0.746558 -7.113159
v 2.961968 -0.689739 -7.317087
v 2.792396 -0.527918 -7.489989
v 2.679085 -0.285713 -7.605531
v 2.639295 0.000000 -7.646107
vn -0.9820 0.1882 -0.0129
vn -0.8409 0.5412 -0.0094
vn -0.5703 0.8214 -0.0044
vn -0.2026 0.9793 -0.0006
vn 0.2028 0.9792 -0.0006
vn 0.5715 0.8206 -0.0047
vn 0.8420 0.5393 -0.0106
vn 0.9822 0.1872 -0.0148
vn 0.9822 -0.1872 -0.0148
vn 0.8420 -0.5393 -0.0106
vn 0.5715 -0.8206 -0.0047
vn 0.2028 -0.9792 -0.0006
vn -0.2026 -0.9793 -0.0006
vn -0.5703 -0.8214 -0.0044
vn -0.8409 -0.5412 -0.0094
vn -0.9820 -0.1882 -0.0129
vn -0.6961 0.1882 -0.6929
vn -0.5950 0.5411 -0.5943
vn -0.4022 0.8214 -0.4044
vn -0.1422 0.9793 -0.1443
vn 0.1416 0.9792 0.1451
vn 0.3971 0.8206 0.4109
vn 0.5828 0.5394 0.6078
vn 0.6783 0.1872 0.7105
vn 0.6783 -0.1872 0.7105
vn 0.5828 -0.5394 0.6078
vn 0.3971 -0.8206 0.4109
vn 0.1416 -0.9792 0.1451
vn -0.1422 -0.9793 -0.1443
vn -0.4022 -0.8214 -0.4044
vn -0.5950 -0.5411 -0.5943
vn -0.6961 -0.1882 -0.6929
vn 0.9820 -0.1883 0.0127
vn 0.8408 -0.5413 0.0093
vn 0.5701 -0.8216 0.0043
vn 0.2023 -0.9793 0.0006
vn -0.2031 -0.9792 0.0006
vn -0.5717 -0.8204 0.0047
vn -0.8421 -0.5392 0.0105
vn -0.9822 -0.1871 0.0146
vn -0.9822 0.1871 0.0146
vn -0.8421 0.5392 0.0105
vn -0.5717 0.8204 0.0047
vn -0.2031 0.9792 0.0006
vn 0.2023 0.9793 0.0006
vn 0.5701 0.8216 0.0043
vn 0.8408 0.5413 0.0093
vn 0.9820 0.1883 0.0127
vn 0.6959 -0.1882 0.6930
vn 0.5949 -0.5412 0.5943
vn 0.4020 -0.8215 0.4043
vn 0.1420 -0.9793 0.1441
vn -0.1418 -0.9792 -0.1453
vn -0.3973 -0.8205 -0.4110
vn -0.5829 -0.5393 -0.6078
vn -0.6785 -0.1872 -0.7104
vn -0.6785 0.1872 -0.7104
vn -0.5829 0.5393 -0.6078
vn -0.3973 0.8205 -0.4110
vn -0.1418 0.9792 -0.1453
vn 0.1420 0.9793 0.1441
vn 0.4020 0.8215 0.4043
vn 0.5949 0.5412 0.5943
vn 0.6959 0.1882 0.6930
vn -0.0122 0.0025 0.9999
vn -0.0078 0.0053 1.0000
vn -0.0026 0.0041 1.0000
vn -0.0003 0.0016 1.0000
vn 0.0003 0.0017 1.0000
vn 0.0029 0.0045 1.0000
vn 0.0088 0.0060 0.9999
vn 0.0140 0.0028 0.9999
vn 0.0140 -0.0028 0.9999
vn 0.0088 -0.0060 0.9999
vn 0.0029 -0.0045 1.0000
vn 0.0003 -0.0017 1.0000
vn -0.0003 -0.0016 1.0000
vn -0.0026 -0.0041 1.0000
vn -0.0078 -0.0053 1.0000
vn -0.0122 -0.0025 0.9999
vn 0.7061 0.0022 -0.7081
vn 0.7089 0.0048 -0.7053
vn 0.7122 0.0037 -0.7020
vn 0.7137 0.0014 -0.7004
vn 0.7141 0.0015 -0.7001
vn 0.7157 0.0041 -0.6984
vn 0.7194 0.0053 -0.6946
vn 0.7226 0.0025 -0.6912
vn 0.7226 -0.0025 -0.6912
vn 0.7194 -0.0054 -0.6946
vn 0.7157 -0.0041 -0.6984
vn 0.7141 -0.0015 -0.7001
vn 0.7137 -0.0013 -0.7004
vn 0.7122 -0.0037 -0.7020
vn 0.7089 -0.0048 -0.7053
vn 0.7061 -0.0022 -0.7081
vn 0.9820 -0.1883 0.0133
vn 0.8408 -0.5413 0.0099
vn 0.5700 -0.8216 0.0049
vn 0.2022 -0.9793 0.0012
vn -0.2032 -0.9791 0.0012
vn -0.5718 -0.8203 0.0053
vn -0.8422 -0.5391 0.0111
vn -0.9822 -0.1871 0.0153
vn -0.9822 0.1871 0.0153
vn -0.8422 0.5391 0.0111
vn -0.5718 0.8203 0.0053
vn -0.2032 0.9791 0.0012
vn 0.2022 0.9793 0.0012
vn 0.5700 0.8216 0.0049
vn 0.8408 0.5413 0.0099
vn 0.9820 0.1883 0.0133
vn 0.6963 -0.1882 0.6926
vn 0.5952 -0.5412 0.5940
vn 0.4024 -0.8216 0.4039
vn 0.1423 -0.9793 0.1436
vn -0.1415 -0.9791 -0.1458
vn -0.3970 -0.8204 -0.4115
vn -0.5826 -0.5392 -0.6082
vn -0.6780 -0.1871 -0.7108
vn -0.6780 0.1871 -0.7108
vn -0.5826 0.5392 -0.6082
vn -0.3970 0.8204 -0.4115
vn -0.1415 0.9791 -0.1458
vn 0.1423 0.9793 0.1436
vn 0.4024 0.8216 0.4039
vn 0.5952 0.5412 0.5940
vn 0.6963 0.1882 0.6926
vn -0.9821 0.1882 -0.0121
vn -0.8409 0.5411 -0.0086
vn -0.5704 0.8213 -0.0036
vn -0.2028 0.9792 0.0003
vn 0.2027 0.9792 0.0003
vn 0.5714 0.8206 -0.0038
vn 0.8420 0.5394 -0.0097
vn 0.9822 0.1872 -0.0139
vn 0.9822 -0.1872 -0.0139
vn 0.8420 -0.5394 -0.0097
vn 0.5714 -0.8206 -0.0038
vn 0.2027 -0.9792 0.0003
vn -0.2028 -0.9792 0.0003
vn -0.5704 -0.8213 -0.0036
vn -0.8409 -0.5411 -0.0086
vn -0.9821 -0.1882 -0.0121
vn -0.6956 0.1881 -0.6934
vn -0.5945 0.5410 -0.5949
vn -0.4018 0.8213 -0.4050
vn -0.1418 0.9792 -0.1449
vn 0.1421 0.9792 0.1445
vn 0.3976 0.8207 0.4103
vn 0.5833 0.5395 0.6072
vn 0.6789 0.1873 0.7100
vn 0.6789 -0.1873 0.7100
vn 0.5833 -0.5395 0.6072
vn 0.3976 -0.8207 0.4103
vn 0.1421 -0.9792 0.1445
vn -0.1418 -0.9792 -0.1449
vn -0.4018 -0.8213 -0.4050
vn -0.5945 -0.5410 -0.5949
vn -0.6956 -0.1881 -0.6934
vn -0.2234 0.0445 0.9737
vn -0.1877 0.1255 0.9742
vn -0.1237 0.1853 0.9749
vn -0.0430 0.2166 0.9753
vn 0.0431 0.2168 0.9753
vn 0.1241 0.1859 0.9747
vn 0.1886 0.1261 0.9739
vn 0.2248 0.0448 0.9734
vn 0.2248 -0.0448 0.9734
vn 0.1886 -0.1261 0.9739
vn 0.1241 -0.1859 0.9747
vn 0.0431 -0.2168 0.9753
vn -0.0430 -0.2166 0.9753
vn -0.1237 -0.1853 0.9749
vn -0.1877 -0.1255 0.9742
vn -0.2234 -0.0445 0.9737
vn 0.5395 0.0443 -0.8408
vn 0.5646 0.1251 -0.8158
vn 0.6096 0.1849 -0.7709
vn 0.6662 0.2162 -0.7137
vn 0.7264 0.2164 -0.6523
vn 0.7826 0.1853 -0.5943
vn 0.8269 0.1256 -0.5481
vn 0.8516 0.0445 -0.5222
vn 0.8516 -0.0445 -0.5222
vn 0.8269 -0.1256 -0.5481
vn 0.7826 -0.1854 -0.5943
vn 0.7264 -0.2164 -0.6523
vn 0.6663 -0.2162 -0.7137
vn 0.6096 -0.1848 -0.7709
vn 0.5646 -0.1251 -0.8158
vn 0.5395 -0.0443 -0.8408
vt 0.000000 1.000000
vt 0.500000 1.000000
vt 0.500000 0.937500
vt 0.000000 0.937500
vt 0.000000 0.062500
vt 0.500000 0.062500
vt 0.500000 0.000000
vt 0.000000 0.000000
vt 0.000000 0.125000
vt 0.500000 0.125000
vt 0.000000 0.187500
vt 0.500000 0.187500
vt 0.000000 0.250000
vt 0.500000 0.250000
vt 0.000000 0.312500
vt 0.500000 0.312500
vt 0.000000 0.375000
vt 0.500000 0.375000
vt 0.000000 0.437500
vt 0.500000 0.437500
vt 0.000000 0.500000
vt 0.500000 0.500000
vt 0.000000 0.562500
vt 0.500000 0.562500
vt 0.000000 0.625000
vt 0.500000 0.625000
vt 0.000000 0.687500
vt 0.500000 0.687500
vt 0.000000 0.750000
vt 0.500000 0.750000
vt 0.000000 0.812500
vt 0.500000 0.812500
vt 0.000000 0.875000
vt 0.500000 0.875000
vt 1.000000 1.000000
vt 1.000000 0.937500
vt 1.000000 0.062500
vt 1.000000 0.000000
vt 1.000000 0.125000
vt 1.000000 0.187500
vt 1.000000 0.250000
vt 1.000000 0.312500
vt 1.000000 0.375000
vt 1.000000 0.437500
vt 1.000000 0.500000
vt 1.000000 0.562500
vt 1.000000 0.625000
vt 1.000000 0.687500
vt 1.000000 0.750000
vt 1.000000 0.812500
vt 1.000000 0.875000
s 0
f 1/1/1 17/2/1 32/3/1 16/4/1
f 2/5/2 18/6/2 17/7/2 1/8/2
f 3/9/3 19/10/3 18/6/3 2/5/3
f 4/11/4 20/12/4 19/10/4 3/9/4
f 5/13/5 21/14/5 20/12/5 4/11/5
f 6/15/6 22/16/6 21/14/6 5/13/6
f 7/17/7 23/18/7 22/16/7 6/15/7
f 8/19/8 24/20/8 23/18/8 7/17/8
f 9/21/9 25/22/9 24/20/9 8/19/9
f 10/23/10 26/24/10 25/22/10 9/21/10
f 11/25/11 27/26/11 26/24/11 10/23/11
f 12/27/12 28/28/12 27/26/12 11/25/12
f 13/29/13 29/30/13 28/28/13 12/27/13
f 14/31/14 30/32/14 29/30/14 13/29/14
f 15/33/15 31/34/15 30/32/15 14/31/15
f 16/4/16 32/3/16 31/34/16 15/33/16
f 17/2/17 33/35/17 48/36/17 32/3/17
f 18/6/18 34/37/18 33/38/18 17/7/18
f 19/10/19 35/39/19 34/37/19 18/6/19
f 20/12/20 36/40/20 35/39/20 19/10/20
f 21/14/21 37/41/21 36/40/21 20/12/21
f 22/16/22 38/42/22 37/41/22 21/14/22
f 23/18/23 39/43/23 38/42/23 22/16/23
f 24/20/24 40/44/24 39/43/24 23/18/24
f 25/22/25 41/45/25 40/44/25 24/20/25
f 26/24/26 42/46/26 41/45/26 25/22/26
f 27/26/27 43/47/27 42/46/27 26/24/27
f 28/28/28 44/48/28 43/47/28 27/26/28
f 29/30/29 45/49/29 44/48/29 28/28/29
f 30/32/30 46/50/30 45/49/30 29/30/30
f 31/34/31 47/51/31 46/50/31 30/32/31
f 32/3/32 48/36/32 47/51/32 31/34/32
f 49/1/33 64/4/33 80/3/33 65/2/33
f 50/5/34 49/8/34 65/7/34 66/6/34
f 51/9/35 50/5/35 66/6/35 67/10/35
f 52/11/36 51/9/36 67/10/36 68/12/36
f 53/13/37 52/11/37 68/12/37 69/14/37
f 54/15/38 53/13/38 69/14/38 70/16/38
f 55/17/39 54/15/39 70/16/39 71/18/39
f 56/19/40 55/17/40 71/18/40 72/20/40
f 57/21/41 56/19/41 72/20/41 73/22/41
f 58/23/42 57/21/42 73/22/42 74/24/42
f 59/25/43 58/23/43 74/24/43 75/26/43
f 60/27/44 59/25/44 75/26/44 76/28/44
f 61/29/45 60/27/45 76/28/45 77/30/45
f 62/31/46 61/29/46 77/30/46 78/32/46
f 63/33/47 62/31/47 78/32/47 79/34/47
f 64/4/48 63/33/48 79/34/48 80/3/48
f 65/2/49 80/3/49 96/36/49 81/35/49
f 66/6/50 65/7/50 81/38/50 82/37/50
f 67/10/51 66/6/51 82/37/51 83/39/51
f 68/12/52 67/10/52 83/39/52 84/40/52
f 69/14/53 68/12/53 84/40/53 85/41/53
f 70/16/54 69/14/54 85/41/54 86/42/54
f 71/18/55 70/16/55 86/42/55 87/43/55
f 72/20/56 71/18/56 87/43/56 88/44/56
f 73/22/57 72/20/57 88/44/57 89/45/57
f 74/24/58 73/22/58 89/45/58 90/46/58
f 75/26/59 74/24/59 90/46/59 91/47/59
f 76/28/60 75/26/60 91/47/60 92/48/60
f 77/30/61 76/28/61 92/48/61 93/49/61
f 78/32/62 77/30/62 93/49/62 94/50/62
f 79/34/63 78/32/63 94/50/63 95/51/63
f 80/3/64 79/34/64 95/51/64 96/36/64
f 1/1/65 16/4/65 64/4/65 49/1/65
f 2/5/66 1/8/66 49/8/66 50/5/66
f 3/9/67 2/5/67 50/5/67 51/9/67
f 4/11/68 3/9/68 51/9/68 52/11/68
f 5/13/69 4/11/69 52/11/69 53/13/69
f 6/15/70 5/13/70 53/13/70 54/15/70
f 7/17/71 6/15/71 54/15/71 55/17/71
f 8/19/72 7/17/72 55/17/72 56/19/72
f 9/21/73 8/19/73 56/19/73 57/21/73
f 10/23/74 9/21/74 57/21/74 58/23/74
f 11/25/75 10/23/75 58/23/75 59/25/75
f 12/27/76 11/25/76 59/25/76 60/27/76
f 13/29/77 12/27/77 60/27/77 61/29/77
f 14/31/78 13/29/78 61/29/78 62/31/78
f 15/33/79 14/31/79 62/31/79 63/33/79
f 16/4/80 15/33/80 63/33/80 64/4/80
f 48/36/81 33/35/81 81/35/81 96/36/81
f 33/38/82 34/37/82 82/37/82 81/38/82
f 34/37/83 35/39/83 83/39/83 82/37/83
f 35/39/84 36/40/84 84/40/84 83/39/84
f 36/40/85 37/41/85 85/41/85 84/40/85
f 37/41/86 38/42/86 86/42/86 85/41/86
f 38/42/87 39/43/87 87/43/87 86/42/87
f 39/43/88 40/44/88 88/44/88 87/43/88
f 40/44/89 41/45/89 89/45/89 88/44/89
f 41/45/90 42/46/90 90/46/90 89/45/90
f 42/46/91 43/47/91 91/47/91 90/46/91
f 43/47/92 44/48/92 92/48/92 91/47/92
f 44/48/93 45/49/93 93/49/93 92/48/93
f 45/49/94 46/50/94 94/50/94 93/49/94
f 46/50/95 47/51/95 95/51/95 94/50/95
f 47/51/96 48/36/96 96/36/96 95/51/96
f 97/1/97 112/4/97 128/3/97 113/2/97
f 98/5/98 97/8/98 113/7/98 114/6/98
f 99/9/99 98/5/99 114/6/99 115/10/99
f 100/11/100 99/9/100 115/10/100 116/12/100
f 101/13/101 100/11/101 116/12/101 117/14/101
f 102/15/102 101/13/102 117/14/102 118/16/102
f 103/17/103 102/15/103 118/16/103 119/18/103
f 104/19/104 103/17/104 119/18/104 120/20/104
f 105/21/105 104/19/105 120/20/105 121/22/105
f 106/23/106 105/21/106 121/22/106 122/24/106
f 107/25/107 106/23/107 122/24/107 123/26/107
f 108/27/108 107/25/108 123/26/108 124/28/108
f 109/29/109 108/27/109 124/28/109 125/30/109
f 110/31/110 109/29/110 125/30/110 126/32/110
f 111/33/111 110/31/111 126/32/111 127/34/111
f 112/4/112 111/33/112 127/34/112 128/3/112
f 113/2/113 128/3/113 144/36/113 129/35/113
f 114/6/114 113/7/114 129/38/114 130/37/114
f 115/10/115 114/6/115 130/37/115 131/39/115
f 116/12/116 115/10/116 131/39/116 132/40/116
f 117/14/117 116/12/117 132/40/117 133/41/117
f 118/16/118 117/14/118 133/41/118 134/42/118
f 119/18/119 118/16/119 134/42/119 135/43/119
f 120/20/120 119/18/120 135/43/120 136/44/120
f 121/22/121 120/20/121 136/44/121 137/45/121
f 122/24/122 121/22/122 137/45/122 138/46/122
f 123/26/123 122/24/123 138/46/123 139/47/123
f 124/28/124 123/26/124 139/47/124 140/48/124
f 125/30/125 124/28/125 140/48/125 141/49/125
f 126/32/126 125/30/126 141/49/126 142/50/126
f 127/34/127 126/32/127 142/50/127 143/51/127
f 128/3/128 127/34/128 143/51/128 144/36/128
f 145/1/129 161/2/129 176/3/129 160/4/129
f 146/5/130 162/6/130 161/7/130 145/8/130
f 147/9/131 163/10/131 162/6/131 146/5/131
f 148/11/132 164/12/132 163/10/132 147/9/132
f 149/13/133 165/14/133 164/12/133 148/11/133
f 150/15/134 166/16/134 165/14/134 149/13/134
f 151/17/135 167/18/135 166/16/135 150/15/135
f 152/19/136 168/20/136 167/18/136 151/17/136
f 153/21/137 169/22/137 168/20/137 152/19/137
f 154/23/138 170/24/138 169/22/138 153/21/138
f 155/25/139 171/26/139 170/24/139 154/23/139
f 156/27/140 172/28/140 171/26/140 155/25/140
f 157/29/141 173/30/141 172/28/141 156/27/141
f 158/31/142 174/32/142 173/30/142 157/29/142
f 159/33/143 175/34/143 174/32/143 158/31/143
f 160/4/144 176/3/144 175/34/144 159/33/144
f 161/2/145 177/35/145 192/36/145 176/3/145
f 162/6/146 178/37/146 177/38/146 161/7/146
f 163/10/147 179/39/147 178/37/147 162/6/147
f 164/12/148 180/40/148 179/39/148 163/10/148
f 165/14/149 181/41/149 180/40/149 164/12/149
f 166/16/150 182/42/150 181/41/150 165/14/150
f 167/18/151 183/43/151 182/42/151 166/16/151
f 168/20/152 184/44/152 183/43/152 167/18/152
f 169/22/153 185/45/153 184/44/153 168/20/153
f 170/24/154 186/46/154 185/45/154 169/22/154
f 171/26/155 187/47/155 186/46/155 170/24/155
f 172/28/156 188/48/156 187/47/156 171/26/156
f 173/30/157 189/49/157 188/48/157 172/28/157
f 174/32/158 190/50/158 189/49/158 173/30/158
f 175/34/159 191/51/159 190/50/159 174/32/159
f 176/3/160 192/36/160 191/51/160 175/34/160
f 97/1/161 145/1/161 160/4/161 112/4/161
f 98/5/162 146/5/162 145/8/162 97/8/162
f 99/9/163 147/9/163 146/5/163 98/5/163
f 100/11/164 148/11/164 147/9/164 99/9/164
f 101/13/165 149/13/165 148/11/165 100/11/165
f 102/15/166 150/15/166 149/13/166 101/13/166
f 103/17/167 151/17/167 150/15/167 102/15/167
f 104/19/168 152/19/168 151/17/168 103/17/168
f 105/21/169 153/21/169 152/19/169 104/19/169
f 106/23/170 154/23/170 153/21/170 105/21/170
f 107/25/171 155/25/171 154/23/171 106/23/171
f 108/27/172 156/27/172 155/25/172 107/25/172
f 109/29/173 157/29/173 156/27/173 108/27/173
f 110/31/174 158/31/174 157/29/174 109/29/174
f 111/33/175 159/33/175 158/31/175 110/31/175
f 112/4/176 160/4/176 159/33/176 111/33/176
f 144/36/177 192/36/177 177/35/177 129/35/177
f 129/38/178 177/38/178 178/37/178 130/37/178
f 130/37/179 178/37/179 179/39/179 131/39/179
f 131/39/180 179/39/180 180/40/180 132/40/180
f 132/40/181 180/40/181 181/41/181 133/41/181
f 133/41/182 181/41/182 182/42/182 134/42/182
f 134/42/183 182/42/183 183/43/183 135/43/183
f 135/43/184 183/43/184 184/44/184 136/44/184
f 136/44/185 184/44/185 185/45/185 137/45/185
f 137/45/186 185/45/186 186/46/186 138/46/186
f 138/46/187 186/46/187 187/47/187 139/47/187
f 139/47/188 187/47/188 188/48/188 140/48/188
f 140/48/189 188/48/189 189/49/189 141/49/189
f 141/49/190 189/49/190 190/50/190 142/50/190
f 142/50/191 190/50/191 191/51/191 143/51/191
f 143/51/192 191/51/192 192/36/192 144/36/192
