# Blender 5.1.2
# www.blender.org
mtllib grate.mtl
o Plane
v -0.692910 0.287013 0.000000
v -0.530330 0.530330 0.000000
v -0.287012 0.692910 0.000000
v 0.000000 0.750000 0.000000
v 0.287013 0.692910 0.000000
v 0.530331 0.530330 0.000000
v 0.692910 0.287012 0.000000
v 0.750000 -0.000000 -0.000000
v 0.692910 -0.287013 0.000000
v 0.530330 -0.530330 0.000000
v 0.287012 -0.692910 0.000000
v -0.000000 -0.750000 0.000000
v -0.287013 -0.692910 0.000000
v -0.530330 -0.530330 0.000000
v -0.692910 -0.287012 0.000000
v -0.750000 0.000000 0.000000
v -0.692910 0.287013 -0.998926
v -0.530330 0.530330 -0.998926
v -0.287012 0.692910 -0.998926
v 0.000000 0.750000 -0.998926
v 0.287013 0.692910 -0.998926
v 0.530331 0.530330 -0.998926
v 0.692910 0.287012 -0.998926
v 0.750000 -0.000000 -0.998926
v 0.692910 -0.287013 -0.998926
v 0.530330 -0.530330 -0.998926
v 0.287012 -0.692910 -0.998926
v -0.000000 -0.750000 -0.998926
v -0.287013 -0.692910 -0.998926
v -0.530330 -0.530330 -0.998926
v -0.692910 -0.287012 -0.998926
v -0.750000 0.000000 -0.998926
v -0.692910 0.287013 -0.788143
v -0.750000 0.000000 -0.788143
v -0.530330 0.530330 -0.788143
v -0.287012 0.692910 -0.788143
v 0.000000 0.750000 -0.788143
v 0.287013 0.692910 -0.788143
v 0.530331 0.530330 -0.788143
v 0.692910 0.287012 -0.788143
v 0.750000 -0.000000 -0.788143
v 0.692910 -0.287013 -0.788143
v 0.530330 -0.530330 -0.788143
v 0.287012 -0.692910 -0.788143
v -0.000000 -0.750000 -0.788143
v -0.287013 -0.692910 -0.788143
v -0.530330 -0.530330 -0.788143
v -0.692910 -0.287012 -0.788143
v -0.831893 0.344581 -0.788143
v -0.831893 0.344581 -0.998926
v -0.900434 0.000000 -0.998926
v -0.900434 0.000000 -0.788143
v -0.636703 0.636703 -0.788143
v -0.636703 0.636703 -0.998926
v -0.344581 0.831893 -0.788143
v -0.344581 0.831893 -0.998926
v 0.000000 0.900434 -0.788143
v 0.000000 0.900434 -0.998926
v 0.344582 0.831893 -0.788143
v 0.344582 0.831893 -0.998926
v 0.636704 0.636703 -0.788143
v 0.636704 0.636703 -0.998926
v 0.831893 0.344581 -0.788143
v 0.831893 0.344581 -0.998926
v 0.900434 -0.000000 -0.788143
v 0.900434 -0.000000 -0.998926
v 0.831893 -0.344582 -0.788143
v 0.831893 -0.344582 -0.998926
v 0.636703 -0.636703 -0.788143
v 0.636703 -0.636703 -0.998926
v 0.344581 -0.831893 -0.788143
v 0.344581 -0.831893 -0.998926
v -0.000000 -0.900434 -0.788143
v -0.000000 -0.900434 -0.998926
v -0.344582 -0.831893 -0.788143
v -0.344582 -0.831893 -0.998926
v -0.636703 -0.636703 -0.788143
v -0.636703 -0.636703 -0.998926
v -0.831893 -0.344581 -0.788143
v -0.831893 -0.344581 -0.998926
v 0.344581 -0.831893 -0.997184
v 0.287012 -0.692910 -0.997184
v -0.000000 -0.900434 -0.997184
v -0.000000 -0.750000 -0.997184
v -0.344582 -0.831893 -0.997184
v -0.287013 -0.692910 -0.997184
v -0.636703 -0.636703 -0.997184
v -0.530330 -0.530330 -0.997184
v -0.831893 0.344581 -0.997184
v -0.692910 0.287013 -0.997184
v -0.831893 -0.344581 -0.997184
v -0.692910 -0.287012 -0.997184
v -0.750000 0.000000 -0.997184
v -0.900434 0.000000 -0.997184
v -0.636703 0.636703 -0.997184
v -0.530330 0.530330 -0.997184
v -0.287012 0.692910 -0.997184
v -0.344581 0.831893 -0.997184
v 0.530330 -0.530330 -0.997184
v 0.692910 -0.287013 -0.997184
v 0.750000 -0.000000 -0.997184
v 0.692910 0.287012 -0.997184
v 0.530331 0.530330 -0.997184
v 0.287013 0.692910 -0.997184
v 0.000000 0.750000 -0.997184
v 0.636703 -0.636703 -0.997184
v 0.831893 -0.344582 -0.997184
v 0.900434 -0.000000 -0.997184
v 0.831893 0.344581 -0.997184
v 0.636704 0.636703 -0.997184
v 0.344582 0.831893 -0.997184
v 0.000000 0.900434 -0.997184
v -0.692910 0.287013 -0.096214
v -0.750000 0.000000 -0.096214
v -0.530330 0.530330 -0.096214
v -0.287012 0.692910 -0.096214
v 0.000000 0.750000 -0.096214
v 0.287013 0.692910 -0.096214
v 0.530331 0.530330 -0.096214
v 0.692910 0.287012 -0.096214
v 0.750000 -0.000000 -0.096214
v 0.692910 -0.287013 -0.096214
v 0.530330 -0.530330 -0.096214
v 0.287012 -0.692910 -0.096214
v -0.000000 -0.750000 -0.096214
v -0.287013 -0.692910 -0.096214
v -0.530330 -0.530330 -0.096214
v -0.692910 -0.287012 -0.096214
vn -0.0000 -0.0000 -1.0000
vn -0.1951 -0.9808 -0.0000
vn 0.5556 -0.8315 -0.0000
vn -0.5556 -0.8315 -0.0000
vn 0.1951 -0.9808 -0.0000
vn -0.8315 -0.5556 -0.0000
vn -0.9808 -0.1951 -0.0000
vn -0.9808 0.1951 -0.0000
vn 0.8315 -0.5556 -0.0000
vn 0.9808 -0.1951 -0.0000
vn 0.9808 0.1951 -0.0000
vn 0.8315 0.5556 -0.0000
vn 0.5556 0.8315 -0.0000
vn 0.1951 0.9808 -0.0000
vn -0.1951 0.9808 -0.0000
vn -0.5556 0.8315 -0.0000
vn -0.8315 0.5556 -0.0000
vn -0.0000 -0.0000 1.0000
vt 0.000000 0.000000
vt 0.788991 0.250000
vt 0.788991 0.187500
vt 0.788991 0.562500
vt 0.788991 0.625000
vt 0.788991 0.312500
vt 0.788991 0.687500
vt 0.788991 0.375000
vt 0.788991 0.750000
vt 0.788991 0.437500
vt 0.788991 0.812500
vt 0.788991 0.937500
vt 0.788991 1.000000
vt 0.096317 0.937500
vt 0.788991 0.875000
vt 0.096317 0.875000
vt 0.096317 0.812500
vt 0.096317 0.750000
vt 0.096317 0.687500
vt 0.096317 0.625000
vt 0.096317 0.562500
vt 0.788991 0.500000
vt 0.096317 0.500000
vt 0.096317 0.437500
vt 0.096317 0.375000
vt 0.096317 0.312500
vt 0.096317 0.250000
vt 0.096317 0.187500
vt 0.788991 0.125000
vt 0.096317 0.125000
vt 0.788991 0.062500
vt 0.096317 0.062500
vt 0.788991 0.000000
vt 0.096317 0.000000
vt 0.096317 1.000000
vt 1.000000 1.000000
vt 1.000000 0.937500
vt 1.000000 0.062500
vt 1.000000 0.000000
vt 1.000000 0.125000
vt 1.000000 0.187500
vt 1.000000 0.250000
vt 1.000000 0.312500
vt 1.000000 0.375000
vt 1.000000 0.437500
vt 1.000000 0.500000
vt 1.000000 0.562500
vt 1.000000 0.625000
vt 1.000000 0.687500
vt 1.000000 0.750000
vt 1.000000 0.812500
vt 1.000000 0.875000
vt 0.000000 1.000000
vt 0.000000 0.937500
vt 0.000000 0.062500
vt 0.000000 0.125000
vt 0.000000 0.187500
vt 0.000000 0.250000
vt 0.000000 0.312500
vt 0.000000 0.375000
vt 0.000000 0.437500
vt 0.000000 0.500000
vt 0.000000 0.562500
vt 0.000000 0.625000
vt 0.000000 0.687500
vt 0.000000 0.750000
vt 0.000000 0.812500
vt 0.000000 0.875000
s 0
f 17/1/1 32/1/1 51/1/1 50/1/1
f 59/2/2 57/3/2 112/3/2 111/2/2
f 30/1/1 29/1/1 76/1/1 78/1/1
f 21/1/1 20/1/1 58/1/1 60/1/1
f 43/4/3 44/5/3 82/5/3 99/4/3
f 25/1/1 24/1/1 66/1/1 68/1/1
f 61/6/4 59/2/4 111/2/4 110/6/4
f 44/5/5 45/7/5 84/7/5 82/5/5
f 29/1/1 28/1/1 74/1/1 76/1/1
f 20/1/1 19/1/1 56/1/1 58/1/1
f 63/8/6 61/6/6 110/6/6 109/8/6
f 45/7/2 46/9/2 86/9/2 84/7/2
f 65/10/7 63/8/7 109/8/7 108/10/7
f 24/1/1 23/1/1 64/1/1 66/1/1
f 46/9/4 47/11/4 88/11/4 86/9/4
f 34/12/8 33/13/8 90/13/8 93/12/8
f 114/14/7 34/12/7 48/15/7 128/16/7
f 128/16/6 48/15/6 47/11/6 127/17/6
f 127/17/4 47/11/4 46/9/4 126/18/4
f 126/18/2 46/9/2 45/7/2 125/19/2
f 125/19/5 45/7/5 44/5/5 124/20/5
f 124/20/3 44/5/3 43/4/3 123/21/3
f 123/21/9 43/4/9 42/22/9 122/23/9
f 122/23/10 42/22/10 41/10/10 121/24/10
f 121/24/11 41/10/11 40/8/11 120/25/11
f 120/25/12 40/8/12 39/6/12 119/26/12
f 119/26/13 39/6/13 38/2/13 118/27/13
f 118/27/14 38/2/14 37/3/14 117/28/14
f 117/28/15 37/3/15 36/29/15 116/30/15
f 116/30/16 36/29/16 35/31/16 115/32/16
f 115/32/17 35/31/17 33/33/17 113/34/17
f 113/35/8 33/13/8 34/12/8 114/14/8
f 49/13/8 50/36/8 51/37/8 52/12/8
f 53/31/17 54/38/17 50/39/17 49/33/17
f 55/29/16 56/40/16 54/38/16 53/31/16
f 57/3/15 58/41/15 56/40/15 55/29/15
f 59/2/14 60/42/14 58/41/14 57/3/14
f 61/6/13 62/43/13 60/42/13 59/2/13
f 63/8/12 64/44/12 62/43/12 61/6/12
f 65/10/11 66/45/11 64/44/11 63/8/11
f 67/22/10 68/46/10 66/45/10 65/10/10
f 69/4/9 70/47/9 68/46/9 67/22/9
f 71/5/3 72/48/3 70/47/3 69/4/3
f 73/7/5 74/49/5 72/48/5 71/5/5
f 75/9/2 76/50/2 74/49/2 73/7/2
f 77/11/4 78/51/4 76/50/4 75/9/4
f 79/15/6 80/52/6 78/51/6 77/11/6
f 52/12/7 51/37/7 80/52/7 79/15/7
f 67/22/8 65/10/8 108/10/8 107/22/8
f 26/1/1 25/1/1 68/1/1 70/1/1
f 47/11/6 48/15/6 92/15/6 88/11/6
f 22/1/1 21/1/1 60/1/1 62/1/1
f 31/1/1 30/1/1 78/1/1 80/1/1
f 33/33/17 35/31/17 96/31/17 90/33/17
f 69/4/17 67/22/17 107/22/17 106/4/17
f 18/1/1 17/1/1 50/1/1 54/1/1
f 27/1/1 26/1/1 70/1/1 72/1/1
f 32/1/1 31/1/1 80/1/1 51/1/1
f 48/15/7 34/12/7 93/12/7 92/15/7
f 23/1/1 22/1/1 62/1/1 64/1/1
f 35/31/16 36/29/16 97/29/16 96/31/16
f 71/5/16 69/4/16 106/4/16 81/5/16
f 19/1/1 18/1/1 54/1/1 56/1/1
f 28/1/1 27/1/1 72/1/1 74/1/1
f 99/4/18 82/5/18 81/5/18 106/4/18
f 82/5/18 84/7/18 83/7/18 81/5/18
f 84/7/18 86/9/18 85/9/18 83/7/18
f 86/9/18 88/11/18 87/11/18 85/9/18
f 93/12/18 90/13/18 89/13/18 94/12/18
f 88/11/18 92/15/18 91/15/18 87/11/18
f 90/33/18 96/31/18 95/31/18 89/33/18
f 92/15/18 93/12/18 94/12/18 91/15/18
f 96/31/18 97/29/18 98/29/18 95/31/18
f 100/22/18 99/4/18 106/4/18 107/22/18
f 101/10/18 100/22/18 107/22/18 108/10/18
f 102/8/18 101/10/18 108/10/18 109/8/18
f 103/6/18 102/8/18 109/8/18 110/6/18
f 104/2/18 103/6/18 110/6/18 111/2/18
f 105/3/18 104/2/18 111/2/18 112/3/18
f 97/29/18 105/3/18 112/3/18 98/29/18
f 42/22/9 43/4/9 99/4/9 100/22/9
f 57/3/5 55/29/5 98/29/5 112/3/5
f 41/10/10 42/22/10 100/22/10 101/10/10
f 55/29/3 53/31/3 95/31/3 98/29/3
f 52/12/11 79/15/11 91/15/11 94/12/11
f 40/8/11 41/10/11 101/10/11 102/8/11
f 53/31/9 49/33/9 89/33/9 95/31/9
f 79/15/12 77/11/12 87/11/12 91/15/12
f 39/6/12 40/8/12 102/8/12 103/6/12
f 49/13/10 52/12/10 94/12/10 89/13/10
f 77/11/13 75/9/13 85/9/13 87/11/13
f 38/2/13 39/6/13 103/6/13 104/2/13
f 75/9/14 73/7/14 83/7/14 85/9/14
f 37/3/14 38/2/14 104/2/14 105/3/14
f 73/7/15 71/5/15 81/5/15 83/7/15
f 36/29/15 37/3/15 105/3/15 97/29/15
f 1/53/8 113/35/8 114/14/8 16/54/8
f 2/55/17 115/32/17 113/34/17 1/1/17
f 3/56/16 116/30/16 115/32/16 2/55/16
f 4/57/15 117/28/15 116/30/15 3/56/15
f 5/58/14 118/27/14 117/28/14 4/57/14
f 6/59/13 119/26/13 118/27/13 5/58/13
f 7/60/12 120/25/12 119/26/12 6/59/12
f 8/61/11 121/24/11 120/25/11 7/60/11
f 9/62/10 122/23/10 121/24/10 8/61/10
f 10/63/9 123/21/9 122/23/9 9/62/9
f 11/64/3 124/20/3 123/21/3 10/63/3
f 12/65/5 125/19/5 124/20/5 11/64/5
f 13/66/2 126/18/2 125/19/2 12/65/2
f 14/67/4 127/17/4 126/18/4 13/66/4
f 15/68/6 128/16/6 127/17/6 14/67/6
f 16/54/7 114/14/7 128/16/7 15/68/7
f 16/54/18 15/68/18 14/67/18 13/66/18 12/65/18 11/64/18 10/63/18 9/62/18 8/61/18 7/60/18 6/59/18 5/58/18 4/57/18 3/56/18 2/55/18 1/1/18
