# Blender 5.1.1
# www.blender.org
mtllib 8m_straight.mtl
o Plane
v -0.692910 1.287013 0.000000
v -0.530330 1.530330 0.000000
v -0.287012 1.692910 0.000000
v 0.000000 1.750000 0.000000
v 0.287013 1.692910 0.000000
v 0.530331 1.530330 0.000000
v 0.692910 1.287012 0.000000
v 0.750000 1.000000 -0.000000
v 0.692910 0.712987 0.000000
v 0.530330 0.469670 0.000000
v 0.287012 0.307090 0.000000
v -0.000000 0.250000 0.000000
v -0.287013 0.307090 0.000000
v -0.530330 0.469670 0.000000
v -0.692910 0.712988 0.000000
v -0.750000 1.000000 0.000000
v -0.692910 1.287013 -7.999919
v -0.530330 1.530330 -7.999919
v -0.287012 1.692910 -7.999919
v 0.000000 1.750000 -7.999919
v 0.287013 1.692910 -7.999919
v 0.530331 1.530330 -7.999919
v 0.692910 1.287012 -7.999919
v 0.750000 1.000000 -7.999919
v 0.692910 0.712987 -7.999919
v 0.530330 0.469670 -7.999919
v 0.287012 0.307090 -7.999919
v -0.000000 0.250000 -7.999919
v -0.287013 0.307090 -7.999919
v -0.530330 0.469670 -7.999919
v -0.692910 0.712988 -7.999919
v -0.750000 1.000000 -7.999919
v -0.692910 1.287013 -7.722113
v -0.750000 1.000000 -7.722113
v -0.530330 1.530330 -7.722113
v -0.287012 1.692910 -7.722113
v 0.000000 1.750000 -7.722113
v 0.287013 1.692910 -7.722113
v 0.530331 1.530330 -7.722113
v 0.692910 1.287012 -7.722113
v 0.750000 1.000000 -7.722113
v 0.692910 0.712987 -7.722113
v 0.530330 0.469670 -7.722113
v 0.287012 0.307090 -7.722113
v -0.000000 0.250000 -7.722113
v -0.287013 0.307090 -7.722113
v -0.530330 0.469670 -7.722113
v -0.692910 0.712988 -7.722113
v -0.692910 1.287013 -0.261043
v -0.750000 1.000000 -0.261043
v -0.530330 1.530330 -0.261043
v -0.287012 1.692910 -0.261043
v 0.000000 1.750000 -0.261043
v 0.287013 1.692910 -0.261043
v 0.530331 1.530330 -0.261043
v 0.692910 1.287012 -0.261043
v 0.750000 1.000000 -0.261043
v 0.692910 0.712987 -0.261043
v 0.530330 0.469670 -0.261043
v 0.287012 0.307090 -0.261043
v -0.000000 0.250000 -0.261043
v -0.287013 0.307090 -0.261043
v -0.530330 0.469670 -0.261043
v -0.692910 0.712988 -0.261043
v -0.836872 1.346644 -7.722113
v -0.836872 1.346644 -7.999919
v -0.905823 1.000000 -7.999919
v -0.905823 1.000000 -7.722113
v -0.640514 1.640514 -7.722113
v -0.640514 1.640514 -7.999919
v -0.346643 1.836872 -7.722113
v -0.346643 1.836872 -7.999919
v 0.000000 1.905823 -7.722113
v 0.000000 1.905823 -7.999919
v 0.346644 1.836871 -7.722113
v 0.346644 1.836871 -7.999919
v 0.640514 1.640513 -7.722113
v 0.640514 1.640513 -7.999919
v 0.836872 1.346643 -7.722113
v 0.836872 1.346643 -7.999919
v 0.905823 1.000000 -7.722113
v 0.905823 1.000000 -7.999919
v 0.836871 0.653356 -7.722113
v 0.836871 0.653356 -7.999919
v 0.640514 0.359486 -7.722113
v 0.640514 0.359486 -7.999919
v 0.346643 0.163128 -7.722113
v 0.346643 0.163128 -7.999919
v -0.000000 0.094177 -7.722113
v -0.000000 0.094177 -7.999919
v -0.346644 0.163129 -7.722113
v -0.346644 0.163129 -7.999919
v -0.640514 0.359487 -7.722113
v -0.640514 0.359487 -7.999919
v -0.836872 0.653357 -7.722113
v -0.836872 0.653357 -7.999919
v -0.837844 1.347046 0.000000
v -0.906876 1.000000 0.000000
v -0.641258 1.641258 0.000000
v -0.347046 1.837844 0.000000
v 0.000000 1.906876 0.000000
v 0.347047 1.837844 0.000000
v 0.641258 1.641258 0.000000
v 0.837844 1.347046 0.000000
v 0.906876 1.000000 -0.000000
v 0.837844 0.652953 0.000000
v 0.641258 0.358742 0.000000
v 0.347046 0.162156 0.000000
v -0.000000 0.093124 0.000000
v -0.347047 0.162156 0.000000
v -0.641258 0.358742 0.000000
v -0.837844 0.652954 0.000000
v -0.837844 1.347046 -0.261043
v -0.906876 1.000000 -0.261043
v -0.641258 1.641258 -0.261043
v -0.347046 1.837844 -0.261043
v 0.000000 1.906876 -0.261043
v 0.347047 1.837844 -0.261043
v 0.641258 1.641258 -0.261043
v 0.837844 1.347046 -0.261043
v 0.906876 1.000000 -0.261043
v 0.837844 0.652953 -0.261043
v 0.641258 0.358742 -0.261043
v 0.347046 0.162156 -0.261043
v -0.000000 0.093124 -0.261043
v -0.347047 0.162156 -0.261043
v -0.641258 0.358742 -0.261043
v -0.837844 0.652954 -0.261043
v -0.837844 0.652954 -0.003077
v -0.692910 0.712988 -0.003077
v -0.837844 1.347046 -0.003077
v -0.692910 1.287013 -0.003077
v -0.750000 1.000000 -0.003077
v -0.906876 1.000000 -0.003077
v -0.641258 0.358742 -0.003077
v -0.530330 0.469670 -0.003077
v -0.347047 0.162156 -0.003077
v -0.287013 0.307090 -0.003077
v -0.000000 0.093124 -0.003077
v -0.000000 0.250000 -0.003077
v 0.287012 0.307090 -0.003077
v 0.347046 0.162156 -0.003077
v -0.530330 1.530330 -0.003077
v -0.287012 1.692910 -0.003077
v 0.000000 1.750000 -0.003077
v 0.287013 1.692910 -0.003077
v 0.530331 1.530330 -0.003077
v 0.692910 1.287012 -0.003077
v 0.750000 1.000000 -0.003077
v 0.692910 0.712987 -0.003077
v 0.530330 0.469670 -0.003077
v -0.641258 1.641258 -0.003077
v -0.347046 1.837844 -0.003077
v 0.000000 1.906876 -0.003077
v 0.347047 1.837844 -0.003077
v 0.641258 1.641258 -0.003077
v 0.837844 1.347046 -0.003077
v 0.906876 1.000000 -0.003077
v 0.837844 0.652953 -0.003077
v 0.641258 0.358742 -0.003077
v -0.836872 0.653357 -8.000631
v -0.692910 0.712988 -8.000631
v -0.750000 1.000000 -8.000631
v -0.905823 1.000000 -8.000631
v -0.640514 1.640514 -8.000631
v -0.530330 1.530330 -8.000631
v -0.346643 1.836872 -8.000631
v -0.287012 1.692910 -8.000631
v 0.000000 1.905823 -8.000631
v 0.000000 1.750000 -8.000631
v 0.346644 1.836871 -8.000631
v 0.287013 1.692910 -8.000631
v 0.530331 1.530330 -8.000631
v 0.640514 1.640513 -8.000631
v -0.530330 0.469670 -8.000631
v -0.287013 0.307090 -8.000631
v -0.000000 0.250000 -8.000631
v 0.287012 0.307090 -8.000631
v 0.530330 0.469670 -8.000631
v 0.692910 0.712987 -8.000631
v 0.750000 1.000000 -8.000631
v 0.692910 1.287012 -8.000631
v -0.692910 1.287013 -8.000631
v -0.640514 0.359487 -8.000631
v -0.346644 0.163129 -8.000631
v -0.000000 0.094177 -8.000631
v 0.346643 0.163128 -8.000631
v 0.640514 0.359486 -8.000631
v 0.836871 0.653356 -8.000631
v 0.905823 1.000000 -8.000631
v 0.836872 1.346643 -8.000631
v -0.836872 1.346644 -8.000631
vn -0.5556 -0.8315 -0.0000
vn -0.0000 -0.0000 -1.0000
vn 0.8315 0.5556 -0.0000
vn -0.8315 -0.5556 -0.0000
vn 0.9808 0.1951 -0.0000
vn -0.9808 -0.1951 -0.0000
vn 0.9808 -0.1951 -0.0000
vn -0.9808 0.1951 -0.0000
vn 0.8315 -0.5556 -0.0000
vn -0.8315 0.5556 -0.0000
vn -0.1951 -0.9808 -0.0000
vn 0.1951 -0.9808 -0.0000
vn 0.5556 -0.8315 -0.0000
vn 0.5556 0.8315 -0.0000
vn 0.1951 0.9808 -0.0000
vn -0.1951 0.9808 -0.0000
vn -0.5556 0.8315 -0.0000
vn -0.0000 -0.0000 1.0000
vt 0.965274 0.312500
vt 0.965274 0.250000
vt 0.000000 0.000000
vt 0.965274 0.375000
vt 0.965274 0.437500
vt 0.965274 0.500000
vt 0.965274 0.562500
vt 0.032631 0.937500
vt 0.965274 0.937500
vt 0.965274 0.875000
vt 0.032631 0.875000
vt 0.965274 0.812500
vt 0.032631 0.812500
vt 0.965274 0.750000
vt 0.032631 0.750000
vt 0.965274 0.687500
vt 0.032631 0.687500
vt 0.965274 0.625000
vt 0.032631 0.625000
vt 0.032631 0.562500
vt 0.032631 0.500000
vt 0.032631 0.437500
vt 0.032631 0.375000
vt 0.032631 0.312500
vt 0.032631 0.250000
vt 0.965274 0.187500
vt 0.032631 0.187500
vt 0.965274 0.125000
vt 0.032631 0.125000
vt 0.965274 0.062500
vt 0.032631 0.062500
vt 0.965274 0.000000
vt 0.032631 0.000000
vt 0.032631 1.000000
vt 0.965274 1.000000
vt 1.000000 1.000000
vt 1.000000 0.937500
vt 1.000000 0.062500
vt 1.000000 0.000000
vt 1.000000 0.125000
vt 1.000000 0.187500
vt 1.000000 0.250000
vt 1.000000 0.312500
vt 1.000000 0.375000
vt 1.000000 0.437500
vt 1.000000 0.500000
vt 1.000000 0.562500
vt 1.000000 0.625000
vt 1.000000 0.687500
vt 1.000000 0.750000
vt 1.000000 0.812500
vt 1.000000 0.875000
vt 0.000000 1.000000
vt 0.000000 0.937500
vt 0.000000 0.062500
vt 0.000000 0.125000
vt 0.000000 0.187500
vt 0.000000 0.250000
vt 0.000000 0.312500
vt 0.000000 0.375000
vt 0.000000 0.437500
vt 0.000000 0.500000
vt 0.000000 0.562500
vt 0.000000 0.625000
vt 0.000000 0.687500
vt 0.000000 0.750000
vt 0.000000 0.812500
vt 0.000000 0.875000
s 0
f 77/1/1 75/2/1 171/2/1 174/1/1
f 29/3/2 28/3/2 90/3/2 92/3/2
f 20/3/2 19/3/2 72/3/2 74/3/2
f 39/1/3 40/4/3 182/4/3 173/1/3
f 79/4/4 77/1/4 174/1/4 191/4/4
f 40/4/5 41/5/5 181/5/5 182/4/5
f 24/3/2 23/3/2 80/3/2 82/3/2
f 81/5/6 79/4/6 191/4/6 190/5/6
f 41/5/7 42/6/7 180/6/7 181/5/7
f 28/3/2 27/3/2 88/3/2 90/3/2
f 19/3/2 18/3/2 70/3/2 72/3/2
f 83/6/8 81/5/8 190/5/8 189/6/8
f 42/6/9 43/7/9 179/7/9 180/6/9
f 23/3/2 22/3/2 78/3/2 80/3/2
f 85/7/10 83/6/10 189/6/10 188/7/10
f 32/3/2 31/3/2 96/3/2 67/3/2
f 50/8/6 34/9/6 48/10/6 64/11/6
f 64/11/4 48/10/4 47/12/4 63/13/4
f 63/13/1 47/12/1 46/14/1 62/15/1
f 62/15/11 46/14/11 45/16/11 61/17/11
f 61/17/12 45/16/12 44/18/12 60/19/12
f 60/19/13 44/18/13 43/7/13 59/20/13
f 59/20/9 43/7/9 42/6/9 58/21/9
f 58/21/7 42/6/7 41/5/7 57/22/7
f 57/22/5 41/5/5 40/4/5 56/23/5
f 56/23/3 40/4/3 39/1/3 55/24/3
f 55/24/14 39/1/14 38/2/14 54/25/14
f 54/25/15 38/2/15 37/26/15 53/27/15
f 53/27/16 37/26/16 36/28/16 52/29/16
f 52/29/17 36/28/17 35/30/17 51/31/17
f 51/31/10 35/30/10 33/32/10 49/33/10
f 49/34/8 33/35/8 34/9/8 50/8/8
f 10/3/18 11/3/18 108/3/18 107/3/18
f 125/17/15 126/15/15 137/15/15 139/17/15
f 1/3/18 2/3/18 99/3/18 97/3/18
f 53/27/16 52/29/16 144/29/16 145/27/16
f 124/19/16 125/17/16 139/17/16 142/19/16
f 14/3/18 15/3/18 112/3/18 111/3/18
f 52/29/17 51/31/17 143/31/17 144/29/17
f 5/3/18 6/3/18 103/3/18 102/3/18
f 50/8/6 64/11/6 130/11/6 133/8/6
f 123/20/17 124/19/17 142/19/17 160/20/17
f 9/3/18 10/3/18 107/3/18 106/3/18
f 51/31/10 49/33/10 132/33/10 143/31/10
f 16/3/18 1/3/18 97/3/18 98/3/18
f 13/3/18 14/3/18 111/3/18 110/3/18
f 64/11/4 63/13/4 136/13/4 130/11/4
f 4/3/18 5/3/18 102/3/18 101/3/18
f 65/35/8 66/36/8 67/37/8 68/9/8
f 69/30/10 70/38/10 66/39/10 65/32/10
f 71/28/17 72/40/17 70/38/17 69/30/17
f 73/26/16 74/41/16 72/40/16 71/28/16
f 75/2/15 76/42/15 74/41/15 73/26/15
f 77/1/14 78/43/14 76/42/14 75/2/14
f 79/4/3 80/44/3 78/43/3 77/1/3
f 81/5/5 82/45/5 80/44/5 79/4/5
f 83/6/7 84/46/7 82/45/7 81/5/7
f 85/7/9 86/47/9 84/46/9 83/6/9
f 87/18/13 88/48/13 86/47/13 85/7/13
f 89/16/12 90/49/12 88/48/12 87/18/12
f 91/14/11 92/50/11 90/49/11 89/16/11
f 93/12/1 94/51/1 92/50/1 91/14/1
f 95/10/4 96/52/4 94/51/4 93/12/4
f 68/9/6 67/37/6 96/52/6 95/10/6
f 43/7/13 44/18/13 178/18/13 179/7/13
f 25/3/2 24/3/2 82/3/2 84/3/2
f 87/18/17 85/7/17 188/7/17 187/18/17
f 21/3/2 20/3/2 74/3/2 76/3/2
f 30/3/2 29/3/2 92/3/2 94/3/2
f 44/18/12 45/16/12 177/16/12 178/18/12
f 17/3/2 32/3/2 67/3/2 66/3/2
f 89/16/16 87/18/16 187/18/16 186/16/16
f 26/3/2 25/3/2 84/3/2 86/3/2
f 45/16/11 46/14/11 176/14/11 177/16/11
f 22/3/2 21/3/2 76/3/2 78/3/2
f 31/3/2 30/3/2 94/3/2 96/3/2
f 91/14/15 89/16/15 186/16/15 185/14/15
f 46/14/1 47/12/1 175/12/1 176/14/1
f 18/3/2 17/3/2 66/3/2 70/3/2
f 27/3/2 26/3/2 86/3/2 88/3/2
f 97/53/8 113/34/8 114/8/8 98/54/8
f 99/55/10 115/31/10 113/33/10 97/3/10
f 100/56/17 116/29/17 115/31/17 99/55/17
f 101/57/16 117/27/16 116/29/16 100/56/16
f 102/58/15 118/25/15 117/27/15 101/57/15
f 103/59/14 119/24/14 118/25/14 102/58/14
f 104/60/3 120/23/3 119/24/3 103/59/3
f 105/61/5 121/22/5 120/23/5 104/60/5
f 106/62/7 122/21/7 121/22/7 105/61/7
f 107/63/9 123/20/9 122/21/9 106/62/9
f 108/64/13 124/19/13 123/20/13 107/63/13
f 109/65/12 125/17/12 124/19/12 108/64/12
f 110/66/11 126/15/11 125/17/11 109/65/11
f 111/67/1 127/13/1 126/15/1 110/66/1
f 112/68/4 128/11/4 127/13/4 111/67/4
f 98/54/6 114/8/6 128/11/6 112/68/6
f 122/21/10 123/20/10 160/20/10 159/21/10
f 6/3/18 7/3/18 104/3/18 103/3/18
f 15/3/18 16/3/18 98/3/18 112/3/18
f 49/34/8 50/8/8 133/8/8 132/34/8
f 2/3/18 3/3/18 100/3/18 99/3/18
f 63/13/1 62/15/1 138/15/1 136/13/1
f 11/3/18 12/3/18 109/3/18 108/3/18
f 121/22/8 122/21/8 159/21/8 158/22/8
f 7/3/18 8/3/18 105/3/18 104/3/18
f 62/15/11 61/17/11 140/17/11 138/15/11
f 3/3/18 4/3/18 101/3/18 100/3/18
f 120/23/6 121/22/6 158/22/6 157/23/6
f 12/3/18 13/3/18 110/3/18 109/3/18
f 61/17/12 60/19/12 141/19/12 140/17/12
f 8/3/18 9/3/18 106/3/18 105/3/18
f 119/24/4 120/23/4 157/23/4 156/24/4
f 144/29/2 143/31/2 152/31/2 153/29/2
f 133/8/2 130/11/2 129/11/2 134/8/2
f 143/31/2 132/33/2 131/33/2 152/31/2
f 130/11/2 136/13/2 135/13/2 129/11/2
f 132/34/2 133/8/2 134/8/2 131/34/2
f 136/13/2 138/15/2 137/15/2 135/13/2
f 138/15/2 140/17/2 139/17/2 137/15/2
f 140/17/2 141/19/2 142/19/2 139/17/2
f 145/27/2 144/29/2 153/29/2 154/27/2
f 146/25/2 145/27/2 154/27/2 155/25/2
f 147/24/2 146/25/2 155/25/2 156/24/2
f 148/23/2 147/24/2 156/24/2 157/23/2
f 149/22/2 148/23/2 157/23/2 158/22/2
f 150/21/2 149/22/2 158/22/2 159/21/2
f 151/20/2 150/21/2 159/21/2 160/20/2
f 141/19/2 151/20/2 160/20/2 142/19/2
f 54/25/15 53/27/15 145/27/15 146/25/15
f 126/15/14 127/13/14 135/13/14 137/15/14
f 114/8/7 113/34/7 131/34/7 134/8/7
f 55/24/14 54/25/14 146/25/14 147/24/14
f 127/13/3 128/11/3 129/11/3 135/13/3
f 113/33/9 115/31/9 152/31/9 131/33/9
f 56/23/3 55/24/3 147/24/3 148/23/3
f 128/11/5 114/8/5 134/8/5 129/11/5
f 115/31/13 116/29/13 153/29/13 152/31/13
f 57/22/5 56/23/5 148/23/5 149/22/5
f 116/29/12 117/27/12 154/27/12 153/29/12
f 58/21/7 57/22/7 149/22/7 150/21/7
f 117/27/11 118/25/11 155/25/11 154/27/11
f 59/20/9 58/21/9 150/21/9 151/20/9
f 118/25/1 119/24/1 156/24/1 155/25/1
f 60/19/13 59/20/13 151/20/13 141/19/13
f 176/14/18 175/12/18 184/12/18 185/14/18
f 163/9/18 183/35/18 192/35/18 164/9/18
f 175/12/18 162/10/18 161/10/18 184/12/18
f 183/32/18 166/30/18 165/30/18 192/32/18
f 162/10/18 163/9/18 164/9/18 161/10/18
f 166/30/18 168/28/18 167/28/18 165/30/18
f 168/28/18 170/26/18 169/26/18 167/28/18
f 170/26/18 172/2/18 171/2/18 169/26/18
f 172/2/18 173/1/18 174/1/18 171/2/18
f 177/16/18 176/14/18 185/14/18 186/16/18
f 178/18/18 177/16/18 186/16/18 187/18/18
f 179/7/18 178/18/18 187/18/18 188/7/18
f 180/6/18 179/7/18 188/7/18 189/6/18
f 181/5/18 180/6/18 189/6/18 190/5/18
f 182/4/18 181/5/18 190/5/18 191/4/18
f 173/1/18 182/4/18 191/4/18 174/1/18
f 38/2/14 39/1/14 173/1/14 172/2/14
f 75/2/11 73/26/11 169/26/11 171/2/11
f 37/26/15 38/2/15 172/2/15 170/26/15
f 73/26/12 71/28/12 167/28/12 169/26/12
f 36/28/16 37/26/16 170/26/16 168/28/16
f 71/28/13 69/30/13 165/30/13 167/28/13
f 68/9/5 95/10/5 161/10/5 164/9/5
f 35/30/17 36/28/17 168/28/17 166/30/17
f 48/10/6 34/9/6 163/9/6 162/10/6
f 69/30/9 65/32/9 192/32/9 165/30/9
f 95/10/3 93/12/3 184/12/3 161/10/3
f 33/32/10 35/30/10 166/30/10 183/32/10
f 47/12/4 48/10/4 162/10/4 175/12/4
f 65/35/7 68/9/7 164/9/7 192/35/7
f 93/12/14 91/14/14 185/14/14 184/12/14
f 34/9/8 33/35/8 183/35/8 163/9/8
o Cube
v -0.640000 0.219046 -0.010913
v -0.640000 0.599046 -0.010913
v -0.640000 0.219046 -7.992787
v -0.640000 0.599046 -7.992787
v 0.640000 0.219046 -0.010913
v 0.640000 0.599046 -0.010913
v 0.640000 0.219046 -7.992787
v 0.640000 0.599046 -7.992787
v -0.350000 0.401990 -7.992787
v -0.350000 0.599046 -7.992787
v 0.350000 0.599046 -7.992787
v 0.350000 0.401990 -7.992787
v -0.350000 0.599046 -0.010913
v 0.350000 0.401990 -0.010913
v 0.350000 0.599046 -0.010913
v -0.350000 0.401990 -0.010913
v -0.636305 0.220143 -0.033953
v -0.636305 0.597949 -0.033954
v -0.636305 0.220143 -7.969746
v -0.636305 0.597949 -7.969747
v 0.636305 0.220143 -0.033954
v 0.636305 0.597949 -0.033954
v 0.636305 0.220143 -7.969747
v 0.636305 0.597949 -7.969747
v -0.351930 0.401418 -7.956688
v -0.353695 0.597949 -7.969746
v 0.353695 0.597949 -7.969746
v 0.351930 0.401418 -7.956688
v -0.353695 0.597949 -0.033954
v 0.351930 0.401418 -0.047012
v 0.353695 0.597949 -0.033954
v -0.351930 0.401418 -0.047012
vn -1.0000 -0.0000 -0.0000
vn -0.0000 -0.0000 -1.0000
vn 1.0000 -0.0000 -0.0000
vn -0.0000 -0.0000 1.0000
vn -0.0000 -1.0000 -0.0000
vn -0.0000 1.0000 -0.0000
vn -0.0000 -0.0719 0.9974
vn -0.0000 -0.0719 -0.9974
vn -1.0000 -0.0090 -0.0000
vn 1.0000 -0.0090 -0.0000
vn -0.0000 0.0663 0.9978
vn -0.0459 -0.0000 0.9989
vn 0.0459 -0.0000 0.9989
vn -0.0000 -0.0718 0.9974
vn -0.0000 0.0663 -0.9978
vn -0.0459 -0.0000 -0.9989
vn 0.0459 -0.0000 -0.9989
vn -0.0000 -0.0718 -0.9974
vt 0.625000 0.000000
vt 0.375000 0.250000
vt 0.375000 0.000000
vt 0.375000 0.500000
vt 0.495358 0.443359
vt 0.625000 0.500000
vt 0.375000 0.750000
vt 0.375000 1.000000
vt 0.495358 0.943359
vt 0.125000 0.750000
vt 0.125000 0.500000
vt 0.875000 0.750000
vt 0.818359 0.500000
vt 0.875000 0.500000
vt 0.625000 0.750000
vt 0.681641 0.500000
vt 0.681641 0.750000
vt 0.375000 0.031437
vt 0.621320 0.236711
vt 0.621320 0.031437
vt 0.375000 0.718563
vt 0.621320 0.513289
vt 0.375000 0.513289
vt 0.125000 0.718563
vt 0.625000 0.250000
vt 0.625000 0.443359
vt 0.495358 0.306641
vt 0.625000 0.306641
vt 0.625000 0.943359
vt 0.625000 1.000000
vt 0.495358 0.806641
vt 0.625000 0.806641
vt 0.818359 0.750000
vt 0.375000 0.236711
vt 0.621320 0.718563
vt 0.125000 0.513289
s 0
usemtl 
f 194/69/19 195/70/19 193/71/19
f 199/72/20 195/70/20 204/73/20
f 200/74/21 197/75/21 199/72/21
f 193/76/22 197/75/22 208/77/22
f 199/72/23 193/78/23 195/79/23
f 194/80/24 202/81/24 196/82/24
f 198/83/24 203/84/24 207/85/24
f 208/86/21 202/87/21 205/88/21
f 206/89/19 203/90/19 204/91/19
f 204/91/24 208/92/24 206/89/24
f 194/69/19 196/93/19 195/70/19
f 204/73/20 203/94/20 200/74/20
f 195/70/20 196/93/20 201/95/20
f 196/93/20 202/96/20 201/95/20
f 204/73/20 200/74/20 199/72/20
f 195/70/20 201/95/20 204/73/20
f 200/74/21 198/83/21 197/75/21
f 205/97/22 194/98/22 208/77/22
f 194/98/22 193/76/22 208/77/22
f 197/75/22 198/83/22 206/99/22
f 198/83/22 207/100/22 206/99/22
f 197/75/22 206/99/22 208/77/22
f 199/72/23 197/75/23 193/78/23
f 194/80/24 205/101/24 202/81/24
f 198/83/24 200/74/24 203/84/24
f 208/86/21 201/102/21 202/87/21
f 206/89/19 207/103/19 203/90/19
f 204/91/24 201/104/24 208/92/24
f 210/69/21 209/71/21 211/70/21
f 215/72/25 220/73/25 211/70/25
f 216/74/19 215/72/19 213/75/19
f 209/76/26 224/77/26 213/75/26
f 215/72/24 211/79/24 209/78/24
f 210/80/23 212/82/23 218/81/23
f 214/83/23 223/85/23 219/84/23
f 224/86/27 221/88/27 218/87/27
f 222/89/28 220/91/28 219/90/28
f 220/91/23 222/89/23 224/92/23
f 210/69/21 211/70/21 212/93/21
f 220/73/29 216/74/29 219/94/29
f 211/70/30 217/95/30 212/93/30
f 212/93/29 217/95/29 218/96/29
f 220/73/31 215/72/31 216/74/31
f 211/70/32 220/73/32 217/95/32
f 216/74/19 213/75/19 214/83/19
f 221/97/33 224/77/33 210/98/33
f 210/98/34 224/77/34 209/76/34
f 213/75/35 222/99/35 214/83/35
f 214/83/33 222/99/33 223/100/33
f 213/75/36 224/77/36 222/99/36
f 215/72/24 209/78/24 213/75/24
f 210/80/23 218/81/23 221/101/23
f 214/83/23 219/84/23 216/74/23
f 224/86/27 218/87/27 217/102/27
f 222/89/28 219/90/28 223/103/28
f 220/91/23 224/92/23 217/104/23
