# Blender 5.1.1
# www.blender.org
mtllib 8res_pipe.mtl
o Plane
v 0.000000 0.231763 0.713292
v 0.000000 0.440839 0.606763
v 0.000000 0.606763 0.440839
v 0.000000 0.713292 0.231763
v 0.000000 0.750000 -0.000000
v 0.000000 0.713292 -0.231763
v -0.000000 0.606762 -0.440839
v 0.000000 0.440838 -0.606763
v 0.000000 0.231762 -0.713293
v 0.000000 -0.000001 -0.750000
v 0.000000 -0.231764 -0.713292
v 0.000000 -0.440840 -0.606762
v 0.000000 -0.606763 -0.440838
v 0.000000 -0.713293 -0.231762
v 0.000000 -0.750000 0.000001
v 0.000000 -0.713292 0.231764
v 0.000000 -0.606762 0.440840
v 0.000000 -0.440838 0.606763
v 0.000000 -0.231762 0.713293
v 0.000000 0.000001 0.750000
v -4.001312 0.231763 0.713292
v -4.001312 0.440839 0.606763
v -4.001312 0.606763 0.440839
v -4.001312 0.713292 0.231763
v -4.001312 0.750000 -0.000000
v -4.001312 0.713292 -0.231763
v -4.001312 0.606762 -0.440839
v -4.001312 0.440838 -0.606763
v -4.001312 0.231762 -0.713293
v -4.001312 -0.000001 -0.750000
v -4.001312 -0.231764 -0.713292
v -4.001312 -0.440840 -0.606762
v -4.001312 -0.606763 -0.440838
v -4.001312 -0.713293 -0.231762
v -4.001312 -0.750000 0.000001
v -4.001312 -0.713292 0.231764
v -4.001312 -0.606762 0.440840
v -4.001312 -0.440838 0.606763
v -4.001312 -0.231762 0.713293
v -4.001312 0.000001 0.750000
v 0.000000 0.228673 0.703782
v 0.000000 0.434961 0.598673
v 0.000000 0.598673 0.434961
v 0.000000 0.703782 0.228672
v 0.000000 0.740000 -0.000000
v 0.000000 0.703782 -0.228673
v -0.000000 0.598672 -0.434962
v 0.000000 0.434961 -0.598673
v 0.000000 0.228672 -0.703782
v 0.000000 -0.000001 -0.740000
v 0.000000 -0.228673 -0.703782
v 0.000000 -0.434962 -0.598672
v 0.000000 -0.598673 -0.434960
v 0.000000 -0.703782 -0.228672
v 0.000000 -0.740000 0.000001
v 0.000000 -0.703781 0.228674
v 0.000000 -0.598672 0.434962
v 0.000000 -0.434960 0.598673
v 0.000000 -0.228671 0.703782
v 0.000000 0.000001 0.740000
v -4.001312 0.228673 0.703782
v -4.001312 0.434961 0.598673
v -4.001312 0.598673 0.434961
v -4.001312 0.703782 0.228672
v -4.001312 0.740000 -0.000000
v -4.001312 0.703782 -0.228673
v -4.001312 0.598672 -0.434962
v -4.001312 0.434961 -0.598673
v -4.001312 0.228672 -0.703782
v -4.001312 -0.000001 -0.740000
v -4.001312 -0.228673 -0.703782
v -4.001312 -0.434962 -0.598672
v -4.001312 -0.598673 -0.434960
v -4.001312 -0.703782 -0.228672
v -4.001312 -0.740000 0.000001
v -4.001312 -0.703781 0.228674
v -4.001312 -0.598672 0.434962
v -4.001312 -0.434960 0.598673
v -4.001312 -0.228671 0.703782
v -4.001312 0.000001 0.740000
vn -0.0000 0.1564 0.9877
vn -0.0000 0.4540 0.8910
vn -0.0000 0.7071 0.7071
vn -0.0000 0.8910 0.4540
vn -0.0000 0.9877 0.1564
vn -0.0000 0.9877 -0.1564
vn -0.0000 0.8910 -0.4540
vn -0.0000 0.7071 -0.7071
vn -0.0000 0.4540 -0.8910
vn -0.0000 0.1564 -0.9877
vn -0.0000 -0.1564 -0.9877
vn -0.0000 -0.4540 -0.8910
vn -0.0000 -0.7071 -0.7071
vn -0.0000 -0.8910 -0.4540
vn -0.0000 -0.9877 -0.1564
vn -0.0000 -0.9877 0.1564
vn -0.0000 -0.8910 0.4540
vn -0.0000 -0.7071 0.7071
vn -0.0000 -0.4540 0.8910
vn -0.0000 -0.1564 0.9877
vn 1.0000 -0.0000 -0.0000
vn -1.0000 -0.0000 -0.0000
vt 0.000000 1.000000
vt 1.000000 1.000000
vt 1.000000 0.950000
vt 0.000000 0.950000
vt 0.000000 0.050000
vt 1.000000 0.050000
vt 1.000000 0.000000
vt 0.000000 0.000000
vt 0.000000 0.100000
vt 1.000000 0.100000
vt 0.000000 0.150000
vt 1.000000 0.150000
vt 0.000000 0.200000
vt 1.000000 0.200000
vt 0.000000 0.250000
vt 1.000000 0.250000
vt 0.000000 0.300000
vt 1.000000 0.300000
vt 0.000000 0.350000
vt 1.000000 0.350000
vt 0.000000 0.400000
vt 1.000000 0.400000
vt 0.000000 0.450000
vt 1.000000 0.450000
vt 0.000000 0.500000
vt 1.000000 0.500000
vt 0.000000 0.550000
vt 1.000000 0.550000
vt 0.000000 0.600000
vt 1.000000 0.600000
vt 0.000000 0.650000
vt 1.000000 0.650000
vt 0.000000 0.700000
vt 1.000000 0.700000
vt 0.000000 0.750000
vt 1.000000 0.750000
vt 0.000000 0.800000
vt 1.000000 0.800000
vt 0.000000 0.850000
vt 1.000000 0.850000
vt 0.000000 0.900000
vt 1.000000 0.900000
s 0
f 1/1/1 21/2/1 40/3/1 20/4/1
f 2/5/2 22/6/2 21/7/2 1/8/2
f 3/9/3 23/10/3 22/6/3 2/5/3
f 4/11/4 24/12/4 23/10/4 3/9/4
f 5/13/5 25/14/5 24/12/5 4/11/5
f 6/15/6 26/16/6 25/14/6 5/13/6
f 7/17/7 27/18/7 26/16/7 6/15/7
f 8/19/8 28/20/8 27/18/8 7/17/8
f 9/21/9 29/22/9 28/20/9 8/19/9
f 10/23/10 30/24/10 29/22/10 9/21/10
f 11/25/11 31/26/11 30/24/11 10/23/11
f 12/27/12 32/28/12 31/26/12 11/25/12
f 13/29/13 33/30/13 32/28/13 12/27/13
f 14/31/14 34/32/14 33/30/14 13/29/14
f 15/33/15 35/34/15 34/32/15 14/31/15
f 16/35/16 36/36/16 35/34/16 15/33/16
f 17/37/17 37/38/17 36/36/17 16/35/17
f 18/39/18 38/40/18 37/38/18 17/37/18
f 19/41/19 39/42/19 38/40/19 18/39/19
f 20/4/20 40/3/20 39/42/20 19/41/20
f 41/1/11 60/4/11 80/3/11 61/2/11
f 42/5/12 41/8/12 61/7/12 62/6/12
f 43/9/13 42/5/13 62/6/13 63/10/13
f 44/11/14 43/9/14 63/10/14 64/12/14
f 45/13/15 44/11/15 64/12/15 65/14/15
f 46/15/16 45/13/16 65/14/16 66/16/16
f 47/17/17 46/15/17 66/16/17 67/18/17
f 48/19/18 47/17/18 67/18/18 68/20/18
f 49/21/19 48/19/19 68/20/19 69/22/19
f 50/23/20 49/21/20 69/22/20 70/24/20
f 51/25/1 50/23/1 70/24/1 71/26/1
f 52/27/2 51/25/2 71/26/2 72/28/2
f 53/29/3 52/27/3 72/28/3 73/30/3
f 54/31/4 53/29/4 73/30/4 74/32/4
f 55/33/5 54/31/5 74/32/5 75/34/5
f 56/35/6 55/33/6 75/34/6 76/36/6
f 57/37/7 56/35/7 76/36/7 77/38/7
f 58/39/8 57/37/8 77/38/8 78/40/8
f 59/41/9 58/39/9 78/40/9 79/42/9
f 60/4/10 59/41/10 79/42/10 80/3/10
f 1/1/21 20/4/21 60/4/21 41/1/21
f 40/3/22 21/2/22 61/2/22 80/3/22
f 2/5/21 1/8/21 41/8/21 42/5/21
f 21/7/22 22/6/22 62/6/22 61/7/22
f 3/9/21 2/5/21 42/5/21 43/9/21
f 22/6/22 23/10/22 63/10/22 62/6/22
f 4/11/21 3/9/21 43/9/21 44/11/21
f 23/10/22 24/12/22 64/12/22 63/10/22
f 5/13/21 4/11/21 44/11/21 45/13/21
f 24/12/22 25/14/22 65/14/22 64/12/22
f 6/15/21 5/13/21 45/13/21 46/15/21
f 25/14/22 26/16/22 66/16/22 65/14/22
f 7/17/21 6/15/21 46/15/21 47/17/21
f 26/16/22 27/18/22 67/18/22 66/16/22
f 8/19/21 7/17/21 47/17/21 48/19/21
f 27/18/22 28/20/22 68/20/22 67/18/22
f 9/21/21 8/19/21 48/19/21 49/21/21
f 28/20/22 29/22/22 69/22/22 68/20/22
f 10/23/21 9/21/21 49/21/21 50/23/21
f 29/22/22 30/24/22 70/24/22 69/22/22
f 11/25/21 10/23/21 50/23/21 51/25/21
f 30/24/22 31/26/22 71/26/22 70/24/22
f 12/27/21 11/25/21 51/25/21 52/27/21
f 31/26/22 32/28/22 72/28/22 71/26/22
f 13/29/21 12/27/21 52/27/21 53/29/21
f 32/28/22 33/30/22 73/30/22 72/28/22
f 14/31/21 13/29/21 53/29/21 54/31/21
f 33/30/22 34/32/22 74/32/22 73/30/22
f 15/33/21 14/31/21 54/31/21 55/33/21
f 34/32/22 35/34/22 75/34/22 74/32/22
f 16/35/21 15/33/21 55/33/21 56/35/21
f 35/34/22 36/36/22 76/36/22 75/34/22
f 17/37/21 16/35/21 56/35/21 57/37/21
f 36/36/22 37/38/22 77/38/22 76/36/22
f 18/39/21 17/37/21 57/37/21 58/39/21
f 37/38/22 38/40/22 78/40/22 77/38/22
f 19/41/21 18/39/21 58/39/21 59/41/21
f 38/40/22 39/42/22 79/42/22 78/40/22
f 20/4/21 19/41/21 59/41/21 60/4/21
f 39/42/22 40/3/22 80/3/22 79/42/22
o Plane
v 0.000000 0.231763 0.713292
v 0.000000 0.440839 0.606763
v 0.000000 0.606763 0.440839
v 0.000000 0.713292 0.231763
v 0.000000 0.750000 -0.000000
v 0.000000 0.713292 -0.231763
v -0.000000 0.606762 -0.440839
v 0.000000 0.440838 -0.606763
v 0.000000 0.231762 -0.713293
v 0.000000 -0.000001 -0.750000
v 0.000000 -0.231764 -0.713292
v 0.000000 -0.440840 -0.606762
v 0.000000 -0.606763 -0.440838
v 0.000000 -0.713293 -0.231762
v 0.000000 -0.750000 0.000001
v 0.000000 -0.713292 0.231764
v 0.000000 -0.606762 0.440840
v 0.000000 -0.440838 0.606763
v 0.000000 -0.231762 0.713293
v 0.000000 0.000001 0.750000
v -4.001312 0.231763 0.713292
v -4.001312 0.440839 0.606763
v -4.001312 0.606763 0.440839
v -4.001312 0.713292 0.231763
v -4.001312 0.750000 -0.000000
v -4.001312 0.713292 -0.231763
v -4.001312 0.606762 -0.440839
v -4.001312 0.440838 -0.606763
v -4.001312 0.231762 -0.713293
v -4.001312 -0.000001 -0.750000
v -4.001312 -0.231764 -0.713292
v -4.001312 -0.440840 -0.606762
v -4.001312 -0.606763 -0.440838
v -4.001312 -0.713293 -0.231762
v -4.001312 -0.750000 0.000001
v -4.001312 -0.713292 0.231764
v -4.001312 -0.606762 0.440840
v -4.001312 -0.440838 0.606763
v -4.001312 -0.231762 0.713293
v -4.001312 0.000001 0.750000
v 0.000000 0.228673 0.703782
v 0.000000 0.434961 0.598673
v 0.000000 0.598673 0.434961
v 0.000000 0.703782 0.228672
v 0.000000 0.740000 -0.000000
v 0.000000 0.703782 -0.228673
v -0.000000 0.598672 -0.434962
v 0.000000 0.434961 -0.598673
v 0.000000 0.228672 -0.703782
v 0.000000 -0.000001 -0.740000
v 0.000000 -0.228673 -0.703782
v 0.000000 -0.434962 -0.598672
v 0.000000 -0.598673 -0.434960
v 0.000000 -0.703782 -0.228672
v 0.000000 -0.740000 0.000001
v 0.000000 -0.703781 0.228674
v 0.000000 -0.598672 0.434962
v 0.000000 -0.434960 0.598673
v 0.000000 -0.228671 0.703782
v 0.000000 0.000001 0.740000
v -4.001312 0.228673 0.703782
v -4.001312 0.434961 0.598673
v -4.001312 0.598673 0.434961
v -4.001312 0.703782 0.228672
v -4.001312 0.740000 -0.000000
v -4.001312 0.703782 -0.228673
v -4.001312 0.598672 -0.434962
v -4.001312 0.434961 -0.598673
v -4.001312 0.228672 -0.703782
v -4.001312 -0.000001 -0.740000
v -4.001312 -0.228673 -0.703782
v -4.001312 -0.434962 -0.598672
v -4.001312 -0.598673 -0.434960
v -4.001312 -0.703782 -0.228672
v -4.001312 -0.740000 0.000001
v -4.001312 -0.703781 0.228674
v -4.001312 -0.598672 0.434962
v -4.001312 -0.434960 0.598673
v -4.001312 -0.228671 0.703782
v -4.001312 0.000001 0.740000
vn -0.0000 0.1564 0.9877
vn -0.0000 0.4540 0.8910
vn -0.0000 0.7071 0.7071
vn -0.0000 0.8910 0.4540
vn -0.0000 0.9877 0.1564
vn -0.0000 0.9877 -0.1564
vn -0.0000 0.8910 -0.4540
vn -0.0000 0.7071 -0.7071
vn -0.0000 0.4540 -0.8910
vn -0.0000 0.1564 -0.9877
vn -0.0000 -0.1564 -0.9877
vn -0.0000 -0.4540 -0.8910
vn -0.0000 -0.7071 -0.7071
vn -0.0000 -0.8910 -0.4540
vn -0.0000 -0.9877 -0.1564
vn -0.0000 -0.9877 0.1564
vn -0.0000 -0.8910 0.4540
vn -0.0000 -0.7071 0.7071
vn -0.0000 -0.4540 0.8910
vn -0.0000 -0.1564 0.9877
vn 1.0000 -0.0000 -0.0000
vn -1.0000 -0.0000 -0.0000
vt 0.000000 1.000000
vt 1.000000 1.000000
vt 1.000000 0.950000
vt 0.000000 0.950000
vt 0.000000 0.050000
vt 1.000000 0.050000
vt 1.000000 0.000000
vt 0.000000 0.000000
vt 0.000000 0.100000
vt 1.000000 0.100000
vt 0.000000 0.150000
vt 1.000000 0.150000
vt 0.000000 0.200000
vt 1.000000 0.200000
vt 0.000000 0.250000
vt 1.000000 0.250000
vt 0.000000 0.300000
vt 1.000000 0.300000
vt 0.000000 0.350000
vt 1.000000 0.350000
vt 0.000000 0.400000
vt 1.000000 0.400000
vt 0.000000 0.450000
vt 1.000000 0.450000
vt 0.000000 0.500000
vt 1.000000 0.500000
vt 0.000000 0.550000
vt 1.000000 0.550000
vt 0.000000 0.600000
vt 1.000000 0.600000
vt 0.000000 0.650000
vt 1.000000 0.650000
vt 0.000000 0.700000
vt 1.000000 0.700000
vt 0.000000 0.750000
vt 1.000000 0.750000
vt 0.000000 0.800000
vt 1.000000 0.800000
vt 0.000000 0.850000
vt 1.000000 0.850000
vt 0.000000 0.900000
vt 1.000000 0.900000
s 0
f 81/43/23 101/44/23 120/45/23 100/46/23
f 82/47/24 102/48/24 101/49/24 81/50/24
f 83/51/25 103/52/25 102/48/25 82/47/25
f 84/53/26 104/54/26 103/52/26 83/51/26
f 85/55/27 105/56/27 104/54/27 84/53/27
f 86/57/28 106/58/28 105/56/28 85/55/28
f 87/59/29 107/60/29 106/58/29 86/57/29
f 88/61/30 108/62/30 107/60/30 87/59/30
f 89/63/31 109/64/31 108/62/31 88/61/31
f 90/65/32 110/66/32 109/64/32 89/63/32
f 91/67/33 111/68/33 110/66/33 90/65/33
f 92/69/34 112/70/34 111/68/34 91/67/34
f 93/71/35 113/72/35 112/70/35 92/69/35
f 94/73/36 114/74/36 113/72/36 93/71/36
f 95/75/37 115/76/37 114/74/37 94/73/37
f 96/77/38 116/78/38 115/76/38 95/75/38
f 97/79/39 117/80/39 116/78/39 96/77/39
f 98/81/40 118/82/40 117/80/40 97/79/40
f 99/83/41 119/84/41 118/82/41 98/81/41
f 100/46/42 120/45/42 119/84/42 99/83/42
f 121/43/33 140/46/33 160/45/33 141/44/33
f 122/47/34 121/50/34 141/49/34 142/48/34
f 123/51/35 122/47/35 142/48/35 143/52/35
f 124/53/36 123/51/36 143/52/36 144/54/36
f 125/55/37 124/53/37 144/54/37 145/56/37
f 126/57/38 125/55/38 145/56/38 146/58/38
f 127/59/39 126/57/39 146/58/39 147/60/39
f 128/61/40 127/59/40 147/60/40 148/62/40
f 129/63/41 128/61/41 148/62/41 149/64/41
f 130/65/42 129/63/42 149/64/42 150/66/42
f 131/67/23 130/65/23 150/66/23 151/68/23
f 132/69/24 131/67/24 151/68/24 152/70/24
f 133/71/25 132/69/25 152/70/25 153/72/25
f 134/73/26 133/71/26 153/72/26 154/74/26
f 135/75/27 134/73/27 154/74/27 155/76/27
f 136/77/28 135/75/28 155/76/28 156/78/28
f 137/79/29 136/77/29 156/78/29 157/80/29
f 138/81/30 137/79/30 157/80/30 158/82/30
f 139/83/31 138/81/31 158/82/31 159/84/31
f 140/46/32 139/83/32 159/84/32 160/45/32
f 81/43/43 100/46/43 140/46/43 121/43/43
f 120/45/44 101/44/44 141/44/44 160/45/44
f 82/47/43 81/50/43 121/50/43 122/47/43
f 101/49/44 102/48/44 142/48/44 141/49/44
f 83/51/43 82/47/43 122/47/43 123/51/43
f 102/48/44 103/52/44 143/52/44 142/48/44
f 84/53/43 83/51/43 123/51/43 124/53/43
f 103/52/44 104/54/44 144/54/44 143/52/44
f 85/55/43 84/53/43 124/53/43 125/55/43
f 104/54/44 105/56/44 145/56/44 144/54/44
f 86/57/43 85/55/43 125/55/43 126/57/43
f 105/56/44 106/58/44 146/58/44 145/56/44
f 87/59/43 86/57/43 126/57/43 127/59/43
f 106/58/44 107/60/44 147/60/44 146/58/44
f 88/61/43 87/59/43 127/59/43 128/61/43
f 107/60/44 108/62/44 148/62/44 147/60/44
f 89/63/43 88/61/43 128/61/43 129/63/43
f 108/62/44 109/64/44 149/64/44 148/62/44
f 90/65/43 89/63/43 129/63/43 130/65/43
f 109/64/44 110/66/44 150/66/44 149/64/44
f 91/67/43 90/65/43 130/65/43 131/67/43
f 110/66/44 111/68/44 151/68/44 150/66/44
f 92/69/43 91/67/43 131/67/43 132/69/43
f 111/68/44 112/70/44 152/70/44 151/68/44
f 93/71/43 92/69/43 132/69/43 133/71/43
f 112/70/44 113/72/44 153/72/44 152/70/44
f 94/73/43 93/71/43 133/71/43 134/73/43
f 113/72/44 114/74/44 154/74/44 153/72/44
f 95/75/43 94/73/43 134/73/43 135/75/43
f 114/74/44 115/76/44 155/76/44 154/74/44
f 96/77/43 95/75/43 135/75/43 136/77/43
f 115/76/44 116/78/44 156/78/44 155/76/44
f 97/79/43 96/77/43 136/77/43 137/79/43
f 116/78/44 117/80/44 157/80/44 156/78/44
f 98/81/43 97/79/43 137/79/43 138/81/43
f 117/80/44 118/82/44 158/82/44 157/80/44
f 99/83/43 98/81/43 138/81/43 139/83/43
f 118/82/44 119/84/44 159/84/44 158/82/44
f 100/46/43 99/83/43 139/83/43 140/46/43
f 119/84/44 120/45/44 160/45/44 159/84/44
