# Blender 5.1.2
# www.blender.org
mtllib grate.mtl
o Plane
v -0.692910 0.287013 0.000000
v -0.530330 0.530330 0.000000
v -0.287012 0.692910 0.000000
v 0.000000 0.750000 0.000000
v 0.287013 0.692910 0.000000
v 0.530331 0.530330 0.000000
v 0.692910 0.287012 0.000000
v 0.750000 -0.000000 -0.000000
v 0.692910 -0.287013 0.000000
v 0.530330 -0.530330 0.000000
v 0.287012 -0.692910 0.000000
v -0.000000 -0.750000 0.000000
v -0.287013 -0.692910 0.000000
v -0.530330 -0.530330 0.000000
v -0.692910 -0.287012 0.000000
v -0.750000 0.000000 0.000000
v -0.692910 0.287013 -0.998926
v -0.530330 0.530330 -0.998926
v -0.287012 0.692910 -0.998926
v 0.000000 0.750000 -0.998926
v 0.287013 0.692910 -0.998926
v 0.530331 0.530330 -0.998926
v 0.692910 0.287012 -0.998926
v 0.750000 -0.000000 -0.998926
v 0.692910 -0.287013 -0.998926
v 0.530330 -0.530330 -0.998926
v 0.287012 -0.692910 -0.998926
v -0.000000 -0.750000 -0.998926
v -0.287013 -0.692910 -0.998926
v -0.530330 -0.530330 -0.998926
v -0.692910 -0.287012 -0.998926
v -0.750000 0.000000 -0.998926
v -0.692910 0.287013 -0.788143
v -0.750000 0.000000 -0.788143
v -0.530330 0.530330 -0.788143
v -0.287012 0.692910 -0.788143
v 0.000000 0.750000 -0.788143
v 0.287013 0.692910 -0.788143
v 0.530331 0.530330 -0.788143
v 0.692910 0.287012 -0.788143
v 0.750000 -0.000000 -0.788143
v 0.692910 -0.287013 -0.788143
v 0.530330 -0.530330 -0.788143
v 0.287012 -0.692910 -0.788143
v -0.000000 -0.750000 -0.788143
v -0.287013 -0.692910 -0.788143
v -0.530330 -0.530330 -0.788143
v -0.692910 -0.287012 -0.788143
v -0.831893 0.344581 -0.788143
v -0.831893 0.344581 -0.998926
v -0.900434 0.000000 -0.998926
v -0.900434 0.000000 -0.788143
v -0.636703 0.636703 -0.788143
v -0.636703 0.636703 -0.998926
v -0.344581 0.831893 -0.788143
v -0.344581 0.831893 -0.998926
v 0.000000 0.900434 -0.788143
v 0.000000 0.900434 -0.998926
v 0.344582 0.831893 -0.788143
v 0.344582 0.831893 -0.998926
v 0.636704 0.636703 -0.788143
v 0.636704 0.636703 -0.998926
v 0.831893 0.344581 -0.788143
v 0.831893 0.344581 -0.998926
v 0.900434 -0.000000 -0.788143
v 0.900434 -0.000000 -0.998926
v 0.831893 -0.344582 -0.788143
v 0.831893 -0.344582 -0.998926
v 0.636703 -0.636703 -0.788143
v 0.636703 -0.636703 -0.998926
v 0.344581 -0.831893 -0.788143
v 0.344581 -0.831893 -0.998926
v -0.000000 -0.900434 -0.788143
v -0.000000 -0.900434 -0.998926
v -0.344582 -0.831893 -0.788143
v -0.344582 -0.831893 -0.998926
v -0.636703 -0.636703 -0.788143
v -0.636703 -0.636703 -0.998926
v -0.831893 -0.344581 -0.788143
v -0.831893 -0.344581 -0.998926
v 0.344581 -0.831893 -0.997184
v 0.287012 -0.692910 -0.997184
v -0.000000 -0.900434 -0.997184
v -0.000000 -0.750000 -0.997184
v -0.344582 -0.831893 -0.997184
v -0.287013 -0.692910 -0.997184
v -0.636703 -0.636703 -0.997184
v -0.530330 -0.530330 -0.997184
v -0.831893 0.344581 -0.997184
v -0.692910 0.287013 -0.997184
v -0.831893 -0.344581 -0.997184
v -0.692910 -0.287012 -0.997184
v -0.750000 0.000000 -0.997184
v -0.900434 0.000000 -0.997184
v -0.636703 0.636703 -0.997184
v -0.530330 0.530330 -0.997184
v -0.287012 0.692910 -0.997184
v -0.344581 0.831893 -0.997184
v 0.530330 -0.530330 -0.997184
v 0.692910 -0.287013 -0.997184
v 0.750000 -0.000000 -0.997184
v 0.692910 0.287012 -0.997184
v 0.530331 0.530330 -0.997184
v 0.287013 0.692910 -0.997184
v 0.000000 0.750000 -0.997184
v 0.636703 -0.636703 -0.997184
v 0.831893 -0.344582 -0.997184
v 0.900434 -0.000000 -0.997184
v 0.831893 0.344581 -0.997184
v 0.636704 0.636703 -0.997184
v 0.344582 0.831893 -0.997184
v 0.000000 0.900434 -0.997184
v -0.692910 0.287013 -0.096214
v -0.750000 0.000000 -0.096214
v -0.530330 0.530330 -0.096214
v -0.287012 0.692910 -0.096214
v 0.000000 0.750000 -0.096214
v 0.287013 0.692910 -0.096214
v 0.530331 0.530330 -0.096214
v 0.692910 0.287012 -0.096214
v 0.750000 -0.000000 -0.096214
v 0.692910 -0.287013 -0.096214
v 0.530330 -0.530330 -0.096214
v 0.287012 -0.692910 -0.096214
v -0.000000 -0.750000 -0.096214
v -0.287013 -0.692910 -0.096214
v -0.530330 -0.530330 -0.096214
v -0.692910 -0.287012 -0.096214
v -0.686016 0.284157 -0.006657
v -0.525054 0.525054 -0.006657
v -0.284157 0.686016 -0.006657
v 0.000000 0.742538 -0.006657
v 0.284158 0.686016 -0.006657
v 0.525054 0.525053 -0.006657
v 0.686016 0.284157 -0.006657
v 0.742538 -0.000000 -0.006657
v 0.686016 -0.284157 -0.006657
v 0.525054 -0.525054 -0.006657
v 0.284157 -0.686016 -0.006657
v -0.000000 -0.742538 -0.006657
v -0.284157 -0.686016 -0.006657
v -0.525054 -0.525053 -0.006657
v -0.686016 -0.284157 -0.006657
v -0.742538 0.000000 -0.006657
v -0.692910 0.287013 -0.988926
v -0.530330 0.530330 -0.988926
v -0.287012 0.692910 -0.988926
v 0.000000 0.750000 -0.988926
v 0.287013 0.692910 -0.988926
v 0.530331 0.530330 -0.988926
v 0.692910 0.287012 -0.988926
v 0.750000 -0.000000 -0.988926
v 0.692910 -0.287013 -0.988926
v 0.530330 -0.530330 -0.988926
v 0.287012 -0.692910 -0.988926
v -0.000000 -0.750000 -0.988926
v -0.287013 -0.692910 -0.988926
v -0.530330 -0.530330 -0.988926
v -0.692910 -0.287012 -0.988926
v -0.750000 0.000000 -0.988926
v -0.683671 0.283186 -0.788143
v -0.740000 0.000000 -0.788143
v -0.523259 0.523259 -0.788143
v -0.283186 0.683671 -0.788143
v 0.000000 0.740000 -0.788143
v 0.283186 0.683671 -0.788143
v 0.523259 0.523259 -0.788143
v 0.683671 0.283185 -0.788143
v 0.740000 -0.000000 -0.788143
v 0.683671 -0.283186 -0.788143
v 0.523259 -0.523259 -0.788143
v 0.283186 -0.683671 -0.788143
v -0.000000 -0.740000 -0.788143
v -0.283186 -0.683671 -0.788143
v -0.523259 -0.523259 -0.788143
v -0.683671 -0.283185 -0.788143
v -0.823893 0.338581 -0.788143
v -0.824999 0.341726 -0.992269
v -0.892972 0.000000 -0.992269
v -0.907505 -0.007071 -0.788143
v -0.636703 0.636703 -0.788143
v -0.631427 0.631427 -0.992269
v -0.349053 0.822949 -0.788143
v -0.341725 0.824999 -0.992269
v 0.010000 0.900434 -0.788143
v 0.000000 0.892972 -0.992269
v 0.349054 0.822948 -0.788143
v 0.341726 0.824999 -0.992269
v 0.636704 0.636703 -0.788143
v 0.631427 0.631426 -0.992269
v 0.840837 0.340109 -0.788143
v 0.824999 0.341725 -0.992269
v 0.905396 -0.008683 -0.788143
v 0.892972 -0.000000 -0.992269
v 0.827420 -0.353526 -0.788143
v 0.824999 -0.341726 -0.992269
v 0.629632 -0.629632 -0.788143
v 0.631427 -0.631427 -0.992269
v 0.343957 -0.821912 -0.788143
v 0.341725 -0.824999 -0.992269
v -0.010000 -0.900434 -0.788143
v -0.000000 -0.892972 -0.992269
v -0.353264 -0.836854 -0.788143
v -0.341726 -0.824999 -0.992269
v -0.646703 -0.636703 -0.788143
v -0.631427 -0.631426 -0.992269
v -0.831893 -0.344581 -0.788143
v -0.824999 -0.341725 -0.992269
v 0.347437 -0.838787 -1.003841
v 0.284498 -0.686839 -1.004721
v -0.000000 -0.907896 -1.003841
v -0.000000 -0.743429 -1.004721
v -0.347437 -0.838787 -1.003841
v -0.284498 -0.686838 -1.004721
v -0.641980 -0.641979 -1.003841
v -0.525684 -0.525683 -1.004721
v -0.838787 0.347437 -1.003841
v -0.686839 0.284498 -1.004721
v -0.838787 -0.347436 -1.003841
v -0.686839 -0.284497 -1.004721
v -0.743429 0.000000 -1.004721
v -0.907896 0.000000 -1.003841
v -0.641980 0.641980 -1.003841
v -0.525683 0.525684 -1.004721
v -0.284498 0.686839 -1.004721
v -0.347437 0.838787 -1.003841
v 0.525683 -0.525684 -1.004721
v 0.686838 -0.284498 -1.004721
v 0.743429 -0.000000 -1.004721
v 0.686839 0.284497 -1.004721
v 0.525684 0.525683 -1.004721
v 0.284498 0.686838 -1.004721
v 0.000000 0.743429 -1.004721
v 0.641979 -0.641980 -1.003841
v 0.838787 -0.347437 -1.003841
v 0.907896 -0.000000 -1.003841
v 0.838787 0.347436 -1.003841
v 0.641980 0.641979 -1.003841
v 0.347437 0.838787 -1.003841
v 0.000000 0.907896 -1.003841
v -0.683671 0.283186 -0.096214
v -0.740000 0.000000 -0.096214
v -0.523259 0.523259 -0.096214
v -0.283186 0.683671 -0.096214
v 0.000000 0.740000 -0.096214
v 0.283186 0.683671 -0.096214
v 0.523259 0.523259 -0.096214
v 0.683671 0.283185 -0.096214
v 0.740000 -0.000000 -0.096214
v 0.683671 -0.283186 -0.096214
v 0.523259 -0.523259 -0.096214
v 0.283186 -0.683671 -0.096214
v -0.000000 -0.740000 -0.096214
v -0.283186 -0.683671 -0.096214
v -0.523259 -0.523259 -0.096214
v -0.683671 -0.283185 -0.096214
vn -0.0000 -0.0000 -1.0000
vn -0.1951 -0.9808 -0.0000
vn 0.5556 -0.8315 -0.0000
vn -0.5556 -0.8315 -0.0000
vn 0.1951 -0.9808 -0.0000
vn -0.8315 -0.5556 -0.0000
vn -0.9808 -0.1951 -0.0000
vn -0.9808 0.1951 -0.0000
vn 0.8315 -0.5556 -0.0000
vn 0.9808 -0.1951 -0.0000
vn 0.9808 0.1951 -0.0000
vn 0.8315 0.5556 -0.0000
vn 0.5556 0.8315 -0.0000
vn 0.1951 0.9808 -0.0000
vn -0.1951 0.9808 -0.0000
vn -0.5556 0.8315 -0.0000
vn -0.8315 0.5556 -0.0000
vn -0.0000 -0.0000 1.0000
vn -0.0234 0.0046 0.9997
vn 0.2086 0.9769 0.0471
vn -0.0132 -0.0198 0.9997
vn 0.0046 0.0234 0.9997
vn -0.5555 0.8314 -0.0155
vn 0.0234 -0.0046 0.9997
vn 0.5491 0.8345 0.0455
vn -0.1951 0.9807 -0.0155
vn -0.0046 -0.0234 0.9997
vn -0.0046 0.0234 0.9997
vn 0.8274 0.5612 0.0226
vn 0.1951 0.9807 -0.0155
vn 0.9820 0.1885 0.0080
vn 0.0234 0.0046 0.9997
vn 0.5555 0.8314 -0.0155
vn 0.9807 -0.1951 -0.0155
vn 0.9762 -0.2153 0.0267
vn 0.8393 -0.5436 0.0114
vn 0.5494 -0.8352 0.0236
vn 0.2032 -0.9791 0.0116
vn -0.2089 -0.9777 0.0218
vn -0.5494 -0.8352 0.0236
vn -0.8266 -0.5607 0.0478
vn -0.9801 -0.1881 0.0631
vn -0.9771 0.2077 0.0460
vn -0.8223 0.5688 0.0152
vn -0.5569 0.8305 -0.0093
vn -0.2061 0.9785 0.0066
vn 0.1883 0.9805 0.0563
vn 0.5581 0.8267 0.0714
vn 0.8367 0.5447 0.0563
vn 0.9768 0.2065 0.0563
vn 0.9779 -0.2078 0.0243
vn 0.0198 -0.0132 0.9997
vn 0.8314 0.5555 -0.0155
vn 0.0132 0.0198 0.9997
vn -0.0198 -0.0132 0.9997
vn 0.8314 -0.5555 -0.0155
vn 0.8213 -0.5679 0.0534
vn -0.0198 0.0132 0.9997
vn 0.0132 -0.0198 0.9997
vn -0.0234 -0.0046 0.9997
vn 0.9807 0.1951 -0.0155
vn 0.0198 0.0132 0.9997
vn 0.5555 -0.8314 -0.0155
vn 0.5553 -0.8281 0.0765
vn -0.0132 0.0198 0.9997
vn 0.0046 -0.0234 0.9997
vn 0.0030 -0.0045 -1.0000
vn 0.0011 -0.0054 -1.0000
vn -0.0011 -0.0054 -1.0000
vn -0.0030 -0.0045 -1.0000
vn -0.0054 0.0011 -1.0000
vn -0.0045 -0.0030 -1.0000
vn -0.0045 0.0030 -1.0000
vn -0.0054 -0.0011 -1.0000
vn -0.0030 0.0045 -1.0000
vn 0.0045 -0.0030 -1.0000
vn 0.0054 -0.0011 -1.0000
vn 0.0054 0.0011 -1.0000
vn 0.0045 0.0030 -1.0000
vn 0.0030 0.0045 -1.0000
vn 0.0011 0.0054 -1.0000
vn -0.0011 0.0054 -1.0000
vn -0.8314 0.5555 -0.0155
vn -0.2028 0.9776 0.0567
vn -0.9807 0.1951 -0.0155
vn -0.5491 0.8345 0.0455
vn -0.9783 -0.2067 0.0145
vn -0.9807 -0.1951 -0.0155
vn -0.8379 0.5429 0.0570
vn -0.8379 -0.5456 0.0145
vn -0.8314 -0.5555 -0.0155
vn -0.9757 0.2150 0.0425
vn -0.5595 -0.8288 0.0002
vn -0.5555 -0.8314 -0.0155
vn -0.1886 -0.9819 0.0145
vn -0.1951 -0.9807 -0.0155
vn 0.2056 -0.9767 0.0615
vn 0.1951 -0.9807 -0.0155
vn 0.9804 -0.1950 0.0278
vn 0.8311 -0.5554 0.0278
vn 0.5554 -0.8311 0.0278
vn 0.1950 -0.9804 0.0278
vn -0.1950 -0.9804 0.0278
vn -0.5554 -0.8311 0.0278
vn -0.8311 -0.5554 0.0278
vn -0.9804 -0.1950 0.0278
vn -0.9804 0.1950 0.0278
vn -0.8311 0.5554 0.0278
vn -0.5554 0.8311 0.0278
vn -0.1950 0.9804 0.0278
vn 0.1950 0.9804 0.0278
vn 0.5554 0.8311 0.0278
vn 0.8311 0.5554 0.0278
vn 0.9804 0.1950 0.0278
vt 0.000000 0.000000
vt 0.788991 0.250000
vt 0.788991 0.187500
vt 0.788991 0.562500
vt 0.788991 0.625000
vt 0.788991 0.312500
vt 0.788991 0.687500
vt 0.788991 0.375000
vt 0.788991 0.750000
vt 0.788991 0.437500
vt 0.788991 0.812500
vt 0.788991 0.937500
vt 0.788991 1.000000
vt 0.096317 0.937500
vt 0.788991 0.875000
vt 0.096317 0.875000
vt 0.096317 0.812500
vt 0.096317 0.750000
vt 0.096317 0.687500
vt 0.096317 0.625000
vt 0.096317 0.562500
vt 0.788991 0.500000
vt 0.096317 0.500000
vt 0.096317 0.437500
vt 0.096317 0.375000
vt 0.096317 0.312500
vt 0.096317 0.250000
vt 0.096317 0.187500
vt 0.788991 0.125000
vt 0.096317 0.125000
vt 0.788991 0.062500
vt 0.096317 0.062500
vt 0.788991 0.000000
vt 0.096317 0.000000
vt 0.096317 1.000000
vt 1.000000 1.000000
vt 1.000000 0.937500
vt 1.000000 0.062500
vt 1.000000 0.000000
vt 1.000000 0.125000
vt 1.000000 0.187500
vt 1.000000 0.250000
vt 1.000000 0.312500
vt 1.000000 0.375000
vt 1.000000 0.437500
vt 1.000000 0.500000
vt 1.000000 0.562500
vt 1.000000 0.625000
vt 1.000000 0.687500
vt 1.000000 0.750000
vt 1.000000 0.812500
vt 1.000000 0.875000
vt 0.000000 1.000000
vt 0.000000 0.937500
vt 0.000000 0.062500
vt 0.000000 0.125000
vt 0.000000 0.187500
vt 0.000000 0.250000
vt 0.000000 0.312500
vt 0.000000 0.375000
vt 0.000000 0.437500
vt 0.000000 0.500000
vt 0.000000 0.562500
vt 0.000000 0.625000
vt 0.000000 0.687500
vt 0.000000 0.750000
vt 0.000000 0.812500
vt 0.000000 0.875000
s 0
f 17/1/1 32/1/1 51/1/1 50/1/1
f 59/2/2 57/3/2 112/3/2 111/2/2
f 30/1/1 29/1/1 76/1/1 78/1/1
f 21/1/1 20/1/1 58/1/1 60/1/1
f 43/4/3 44/5/3 82/5/3 99/4/3
f 25/1/1 24/1/1 66/1/1 68/1/1
f 61/6/4 59/2/4 111/2/4 110/6/4
f 44/5/5 45/7/5 84/7/5 82/5/5
f 29/1/1 28/1/1 74/1/1 76/1/1
f 20/1/1 19/1/1 56/1/1 58/1/1
f 63/8/6 61/6/6 110/6/6 109/8/6
f 45/7/2 46/9/2 86/9/2 84/7/2
f 65/10/7 63/8/7 109/8/7 108/10/7
f 24/1/1 23/1/1 64/1/1 66/1/1
f 46/9/4 47/11/4 88/11/4 86/9/4
f 34/12/8 33/13/8 90/13/8 93/12/8
f 114/14/7 34/12/7 48/15/7 128/16/7
f 128/16/6 48/15/6 47/11/6 127/17/6
f 127/17/4 47/11/4 46/9/4 126/18/4
f 126/18/2 46/9/2 45/7/2 125/19/2
f 125/19/5 45/7/5 44/5/5 124/20/5
f 124/20/3 44/5/3 43/4/3 123/21/3
f 123/21/9 43/4/9 42/22/9 122/23/9
f 122/23/10 42/22/10 41/10/10 121/24/10
f 121/24/11 41/10/11 40/8/11 120/25/11
f 120/25/12 40/8/12 39/6/12 119/26/12
f 119/26/13 39/6/13 38/2/13 118/27/13
f 118/27/14 38/2/14 37/3/14 117/28/14
f 117/28/15 37/3/15 36/29/15 116/30/15
f 116/30/16 36/29/16 35/31/16 115/32/16
f 115/32/17 35/31/17 33/33/17 113/34/17
f 113/35/8 33/13/8 34/12/8 114/14/8
f 49/13/8 50/36/8 51/37/8 52/12/8
f 53/31/17 54/38/17 50/39/17 49/33/17
f 55/29/16 56/40/16 54/38/16 53/31/16
f 57/3/15 58/41/15 56/40/15 55/29/15
f 59/2/14 60/42/14 58/41/14 57/3/14
f 61/6/13 62/43/13 60/42/13 59/2/13
f 63/8/12 64/44/12 62/43/12 61/6/12
f 65/10/11 66/45/11 64/44/11 63/8/11
f 67/22/10 68/46/10 66/45/10 65/10/10
f 69/4/9 70/47/9 68/46/9 67/22/9
f 71/5/3 72/48/3 70/47/3 69/4/3
f 73/7/5 74/49/5 72/48/5 71/5/5
f 75/9/2 76/50/2 74/49/2 73/7/2
f 77/11/4 78/51/4 76/50/4 75/9/4
f 79/15/6 80/52/6 78/51/6 77/11/6
f 52/12/7 51/37/7 80/52/7 79/15/7
f 67/22/8 65/10/8 108/10/8 107/22/8
f 26/1/1 25/1/1 68/1/1 70/1/1
f 47/11/6 48/15/6 92/15/6 88/11/6
f 22/1/1 21/1/1 60/1/1 62/1/1
f 31/1/1 30/1/1 78/1/1 80/1/1
f 33/33/17 35/31/17 96/31/17 90/33/17
f 69/4/17 67/22/17 107/22/17 106/4/17
f 18/1/1 17/1/1 50/1/1 54/1/1
f 27/1/1 26/1/1 70/1/1 72/1/1
f 32/1/1 31/1/1 80/1/1 51/1/1
f 48/15/7 34/12/7 93/12/7 92/15/7
f 23/1/1 22/1/1 62/1/1 64/1/1
f 35/31/16 36/29/16 97/29/16 96/31/16
f 71/5/16 69/4/16 106/4/16 81/5/16
f 19/1/1 18/1/1 54/1/1 56/1/1
f 28/1/1 27/1/1 72/1/1 74/1/1
f 99/4/18 82/5/18 81/5/18 106/4/18
f 82/5/18 84/7/18 83/7/18 81/5/18
f 84/7/18 86/9/18 85/9/18 83/7/18
f 86/9/18 88/11/18 87/11/18 85/9/18
f 93/12/18 90/13/18 89/13/18 94/12/18
f 88/11/18 92/15/18 91/15/18 87/11/18
f 90/33/18 96/31/18 95/31/18 89/33/18
f 92/15/18 93/12/18 94/12/18 91/15/18
f 96/31/18 97/29/18 98/29/18 95/31/18
f 100/22/18 99/4/18 106/4/18 107/22/18
f 101/10/18 100/22/18 107/22/18 108/10/18
f 102/8/18 101/10/18 108/10/18 109/8/18
f 103/6/18 102/8/18 109/8/18 110/6/18
f 104/2/18 103/6/18 110/6/18 111/2/18
f 105/3/18 104/2/18 111/2/18 112/3/18
f 97/29/18 105/3/18 112/3/18 98/29/18
f 42/22/9 43/4/9 99/4/9 100/22/9
f 57/3/5 55/29/5 98/29/5 112/3/5
f 41/10/10 42/22/10 100/22/10 101/10/10
f 55/29/3 53/31/3 95/31/3 98/29/3
f 52/12/11 79/15/11 91/15/11 94/12/11
f 40/8/11 41/10/11 101/10/11 102/8/11
f 53/31/9 49/33/9 89/33/9 95/31/9
f 79/15/12 77/11/12 87/11/12 91/15/12
f 39/6/12 40/8/12 102/8/12 103/6/12
f 49/13/10 52/12/10 94/12/10 89/13/10
f 77/11/13 75/9/13 85/9/13 87/11/13
f 38/2/13 39/6/13 103/6/13 104/2/13
f 75/9/14 73/7/14 83/7/14 85/9/14
f 37/3/14 38/2/14 104/2/14 105/3/14
f 73/7/15 71/5/15 81/5/15 83/7/15
f 36/29/15 37/3/15 105/3/15 97/29/15
f 1/53/8 113/35/8 114/14/8 16/54/8
f 2/55/17 115/32/17 113/34/17 1/1/17
f 3/56/16 116/30/16 115/32/16 2/55/16
f 4/57/15 117/28/15 116/30/15 3/56/15
f 5/58/14 118/27/14 117/28/14 4/57/14
f 6/59/13 119/26/13 118/27/13 5/58/13
f 7/60/12 120/25/12 119/26/12 6/59/12
f 8/61/11 121/24/11 120/25/11 7/60/11
f 9/62/10 122/23/10 121/24/10 8/61/10
f 10/63/9 123/21/9 122/23/9 9/62/9
f 11/64/3 124/20/3 123/21/3 10/63/3
f 12/65/5 125/19/5 124/20/5 11/64/5
f 13/66/2 126/18/2 125/19/2 12/65/2
f 14/67/4 127/17/4 126/18/4 13/66/4
f 15/68/6 128/16/6 127/17/6 14/67/6
f 16/54/7 114/14/7 128/16/7 15/68/7
f 16/54/18 15/68/18 14/67/18 13/66/18 12/65/18 11/64/18 10/63/18 9/62/18 8/61/18 7/60/18 6/59/18 5/58/18 4/57/18 3/56/18 2/55/18 1/1/18
f 145/1/19 178/1/19 179/1/19 160/1/19
f 187/2/20 239/2/20 240/3/20 185/3/20
f 158/1/21 206/1/21 204/1/21 157/1/21
f 149/1/22 188/1/22 186/1/22 148/1/22
f 171/4/23 227/4/23 210/5/23 172/5/23
f 153/1/24 196/1/24 194/1/24 152/1/24
f 189/6/25 238/6/25 239/2/25 187/2/25
f 172/5/26 210/5/26 212/7/26 173/7/26
f 157/1/27 204/1/27 202/1/27 156/1/27
f 148/1/28 186/1/28 184/1/28 147/1/28
f 191/8/29 237/8/29 238/6/29 189/6/29
f 173/7/30 212/7/30 214/9/30 174/9/30
f 193/10/31 236/10/31 237/8/31 191/8/31
f 152/1/32 194/1/32 192/1/32 151/1/32
f 174/9/33 214/9/33 216/11/33 175/11/33
f 162/12/34 221/12/34 218/13/34 161/13/34
f 242/14/11 256/16/11 176/15/11 162/12/11
f 256/16/12 255/17/12 175/11/12 176/15/12
f 255/17/13 254/18/13 174/9/13 175/11/13
f 254/18/14 253/19/14 173/7/14 174/9/14
f 253/19/15 252/20/15 172/5/15 173/7/15
f 252/20/16 251/21/16 171/4/16 172/5/16
f 251/21/17 250/23/17 170/22/17 171/4/17
f 250/23/8 249/24/8 169/10/8 170/22/8
f 249/24/7 248/25/7 168/8/7 169/10/7
f 248/25/6 247/26/6 167/6/6 168/8/6
f 247/26/4 246/27/4 166/2/4 167/6/4
f 246/27/2 245/28/2 165/3/2 166/2/2
f 245/28/5 244/30/5 164/29/5 165/3/5
f 244/30/3 243/32/3 163/31/3 164/29/3
f 243/32/9 241/34/9 161/33/9 163/31/9
f 241/35/10 242/14/10 162/12/10 161/13/10
f 177/13/35 180/12/35 179/37/35 178/36/35
f 181/31/36 177/33/36 178/39/36 182/38/36
f 183/29/37 181/31/37 182/38/37 184/40/37
f 185/3/38 183/29/38 184/40/38 186/41/38
f 187/2/39 185/3/39 186/41/39 188/42/39
f 189/6/40 187/2/40 188/42/40 190/43/40
f 191/8/41 189/6/41 190/43/41 192/44/41
f 193/10/42 191/8/42 192/44/42 194/45/42
f 195/22/43 193/10/43 194/45/43 196/46/43
f 197/4/44 195/22/44 196/46/44 198/47/44
f 199/5/45 197/4/45 198/47/45 200/48/45
f 201/7/46 199/5/46 200/48/46 202/49/46
f 203/9/47 201/7/47 202/49/47 204/50/47
f 205/11/48 203/9/48 204/50/48 206/51/48
f 207/15/49 205/11/49 206/51/49 208/52/49
f 180/12/50 207/15/50 208/52/50 179/37/50
f 195/22/51 235/22/51 236/10/51 193/10/51
f 154/1/52 198/1/52 196/1/52 153/1/52
f 175/11/53 216/11/53 220/15/53 176/15/53
f 150/1/54 190/1/54 188/1/54 149/1/54
f 159/1/55 208/1/55 206/1/55 158/1/55
f 161/33/56 218/33/56 224/31/56 163/31/56
f 197/4/57 234/4/57 235/22/57 195/22/57
f 146/1/58 182/1/58 178/1/58 145/1/58
f 155/1/59 200/1/59 198/1/59 154/1/59
f 160/1/60 179/1/60 208/1/60 159/1/60
f 176/15/61 220/15/61 221/12/61 162/12/61
f 151/1/62 192/1/62 190/1/62 150/1/62
f 163/31/63 224/31/63 225/29/63 164/29/63
f 199/5/64 209/5/64 234/4/64 197/4/64
f 147/1/65 184/1/65 182/1/65 146/1/65
f 156/1/66 202/1/66 200/1/66 155/1/66
f 227/4/67 234/4/67 209/5/67 210/5/67
f 210/5/68 209/5/68 211/7/68 212/7/68
f 212/7/69 211/7/69 213/9/69 214/9/69
f 214/9/70 213/9/70 215/11/70 216/11/70
f 221/12/71 222/12/71 217/13/71 218/13/71
f 216/11/72 215/11/72 219/15/72 220/15/72
f 218/33/73 217/33/73 223/31/73 224/31/73
f 220/15/74 219/15/74 222/12/74 221/12/74
f 224/31/75 223/31/75 226/29/75 225/29/75
f 228/22/76 235/22/76 234/4/76 227/4/76
f 229/10/77 236/10/77 235/22/77 228/22/77
f 230/8/78 237/8/78 236/10/78 229/10/78
f 231/6/79 238/6/79 237/8/79 230/8/79
f 232/2/80 239/2/80 238/6/80 231/6/80
f 233/3/81 240/3/81 239/2/81 232/2/81
f 225/29/82 226/29/82 240/3/82 233/3/82
f 170/22/83 228/22/83 227/4/83 171/4/83
f 185/3/84 240/3/84 226/29/84 183/29/84
f 169/10/85 229/10/85 228/22/85 170/22/85
f 183/29/86 226/29/86 223/31/86 181/31/86
f 180/12/87 222/12/87 219/15/87 207/15/87
f 168/8/88 230/8/88 229/10/88 169/10/88
f 181/31/89 223/31/89 217/33/89 177/33/89
f 207/15/90 219/15/90 215/11/90 205/11/90
f 167/6/91 231/6/91 230/8/91 168/8/91
f 177/13/92 217/13/92 222/12/92 180/12/92
f 205/11/93 215/11/93 213/9/93 203/9/93
f 166/2/94 232/2/94 231/6/94 167/6/94
f 203/9/95 213/9/95 211/7/95 201/7/95
f 165/3/96 233/3/96 232/2/96 166/2/96
f 201/7/97 211/7/97 209/5/97 199/5/97
f 164/29/98 225/29/98 233/3/98 165/3/98
f 129/53/99 144/54/99 242/14/99 241/35/99
f 130/55/100 129/1/100 241/34/100 243/32/100
f 131/56/101 130/55/101 243/32/101 244/30/101
f 132/57/102 131/56/102 244/30/102 245/28/102
f 133/58/103 132/57/103 245/28/103 246/27/103
f 134/59/104 133/58/104 246/27/104 247/26/104
f 135/60/105 134/59/105 247/26/105 248/25/105
f 136/61/106 135/60/106 248/25/106 249/24/106
f 137/62/107 136/61/107 249/24/107 250/23/107
f 138/63/108 137/62/108 250/23/108 251/21/108
f 139/64/109 138/63/109 251/21/109 252/20/109
f 140/65/110 139/64/110 252/20/110 253/19/110
f 141/66/111 140/65/111 253/19/111 254/18/111
f 142/67/112 141/66/112 254/18/112 255/17/112
f 143/68/113 142/67/113 255/17/113 256/16/113
f 144/54/114 143/68/114 256/16/114 242/14/114
f 144/54/1 129/1/1 130/55/1 131/56/1 132/57/1 133/58/1 134/59/1 135/60/1 136/61/1 137/62/1 138/63/1 139/64/1 140/65/1 141/66/1 142/67/1 143/68/1
f 32/1/10 17/1/10 145/1/10 160/1/10
f 17/1/9 18/1/9 146/1/9 145/1/9
f 18/1/3 19/1/3 147/1/3 146/1/3
f 19/1/5 20/1/5 148/1/5 147/1/5
f 20/1/2 21/1/2 149/1/2 148/1/2
f 21/1/4 22/1/4 150/1/4 149/1/4
f 22/1/6 23/1/6 151/1/6 150/1/6
f 23/1/7 24/1/7 152/1/7 151/1/7
f 24/1/8 25/1/8 153/1/8 152/1/8
f 25/1/17 26/1/17 154/1/17 153/1/17
f 26/1/16 27/1/16 155/1/16 154/1/16
f 27/1/15 28/1/15 156/1/15 155/1/15
f 28/1/14 29/1/14 157/1/14 156/1/14
f 29/1/13 30/1/13 158/1/13 157/1/13
f 30/1/12 31/1/12 159/1/12 158/1/12
f 31/1/11 32/1/11 160/1/11 159/1/11
